<svg width="40" height="27" viewBox="0 0 40 27" fill="none" xmlns="http://www.w3.org/2000/svg">
<rect y="0.926025" width="40" height="26" rx="2.51813" fill="#F4F5FF"/>
<mask id="mask0_75_1924" style="mask-type:alpha" maskUnits="userSpaceOnUse" x="0" y="0" width="40" height="27">
<rect y="0.926025" width="40" height="26" rx="2.51813" fill="#F4F5FF"/>
</mask>
<g mask="url(#mask0_75_1924)">
<path d="M17.3118 19.9668V16.1819L15.5889 18.046L17.3118 19.9668Z" fill="#306FC8"/>
<path d="M10.0908 16.6565V17.5085L12.5544 17.5033V18.4793H10.0908V19.4139H12.8527L14.1384 18.03L12.9041 16.6565H10.0908Z" fill="#306FC8"/>
<path d="M20.5573 9.48463C20.7013 9.40201 20.7888 9.23678 20.7888 9.0354C20.7888 8.83401 20.6962 8.68943 20.5573 8.61198C20.4236 8.53452 20.223 8.52936 20.0224 8.52936H18.6338V9.58274H20.007C20.223 9.58274 20.403 9.57241 20.5573 9.48463Z" fill="#306FC8"/>
<path d="M2.06738 10.2275H3.60517L2.83371 8.3479L2.06738 10.2275Z" fill="#306FC8"/>
<path d="M19.9033 16.6565H18.4375V17.8441H19.893C20.3199 17.8441 20.5873 17.6376 20.5873 17.2297C20.5822 16.8217 20.3044 16.6565 19.9033 16.6565Z" fill="#306FC8"/>
<path d="M2.35554 12.1438H3.32245L3.75961 13.2023H7.5398V12.3968L7.87924 13.2023H9.83363L10.1731 12.3865V13.2023H19.5644V11.4777H19.7495C19.8833 11.4777 19.9193 11.4932 19.9193 11.7049V13.2023H24.7744V12.7944C25.1601 13.0061 25.767 13.2023 26.5796 13.2023H28.6214L29.0637 12.1438H30.0306L30.4678 13.2023H34.392V12.2006L34.9937 13.2023H38.1464V6.61353H35.0297V7.38807L34.5823 6.61353H31.3781V7.38807L30.9872 6.61353H26.6567C25.9264 6.61353 25.2835 6.71163 24.7744 6.99047V6.61353H21.7914V6.99047C21.4416 6.70647 21.0045 6.61353 20.5107 6.61353H9.5919L8.85129 8.31237L8.11068 6.61353H4.67509V7.38807L4.28421 6.61353H1.35264L0 9.73753V13.2023H1.91838L2.35554 12.1438ZM24.9852 8.09549C25.3452 7.71855 25.9213 7.54298 26.6979 7.54298H27.7728V8.55506H26.7185C26.3019 8.55506 26.0704 8.61702 25.8493 8.83906C25.6538 9.03528 25.5201 9.41222 25.5201 9.90793C25.5201 10.414 25.6178 10.7703 25.839 11.0181C26.0036 11.204 26.3173 11.2608 26.6207 11.2608H27.1248L28.7088 7.54298H30.3855L32.2936 12.0147V7.54298H34.0114L35.9863 10.8322V7.54298H37.1435V12.2729H35.5389L33.4148 8.73062V12.2729H31.1261L30.6941 11.2143H28.354L27.9219 12.2729H26.6156C26.0653 12.2729 25.371 12.1438 24.9801 11.7462C24.5841 11.3434 24.3835 10.8012 24.3835 9.94408C24.3835 9.24182 24.5069 8.60153 24.9852 8.09549ZM22.6811 7.54298H23.8332V12.2729H22.6811V7.54298ZM17.5123 7.54298H20.1044C20.6753 7.54298 21.097 7.56364 21.4571 7.77018C21.8171 7.98189 22.0382 8.29171 22.0382 8.8184C22.0382 9.56713 21.5342 9.95441 21.2359 10.0732C21.4828 10.1661 21.6936 10.3365 21.7914 10.4759C21.9508 10.7031 21.9765 10.92 21.9765 11.3331V12.2729H20.845V11.6739C20.845 11.3951 20.8707 10.982 20.6599 10.7599C20.5004 10.5895 20.2536 10.5534 19.8421 10.5534H18.6335V12.2729H17.5071V7.54298H17.5123ZM12.9761 7.54298H16.7305V8.52924H14.0973V9.38124H16.6637V10.352H14.0973V11.2866L16.7305 11.2815V12.2677H12.9761V7.54298ZM1.23435 12.2729H0.0102862L2.02124 7.54298H3.6979L5.60599 12.0147V7.54298H7.44722L8.91301 10.7496L10.2656 7.54298H12.1377V12.2729H10.9857V8.57055L9.35532 12.2729H8.36784L6.73233 8.56538V12.2729H4.4385L4.00648 11.2143H1.66637L1.23435 12.2729Z" fill="#306FC8"/>
<path d="M29.5212 8.3479L28.7549 10.2275H30.2875L29.5212 8.3479Z" fill="#306FC8"/>
<path d="M37.5086 16.7645C37.3903 16.842 37.3389 16.9556 37.3389 17.1053C37.3389 17.2809 37.4417 17.4048 37.5857 17.4564C37.6989 17.4977 37.8275 17.5081 38.0178 17.5081L38.6195 17.5236C39.2418 17.5391 39.6533 17.6423 39.9053 17.9057C39.9413 17.9418 39.9721 17.978 39.9979 18.0141V16.6819H37.956C37.7555 16.6819 37.6166 16.6922 37.5086 16.7645Z" fill="#306FC8"/>
<path d="M38.4814 20.3947H36.311V19.3826H38.4711C38.682 19.3826 38.8311 19.3516 38.9237 19.269C39.0008 19.1967 39.0574 19.0934 39.0574 18.9592C39.0574 18.8198 39.0008 18.7113 38.9186 18.6442C38.8363 18.5719 38.718 18.5409 38.5277 18.5409C37.4785 18.5099 36.1567 18.5771 36.1567 17.0744C36.1567 16.398 36.5836 15.6699 37.7665 15.6699H40.0037V14.7405H37.9208C37.2985 14.7405 36.8305 14.8851 36.5116 15.1174V14.7405H33.4411C32.9525 14.7405 32.3662 14.8592 32.0936 15.1174V14.7405H26.5957V15.1174C26.1585 14.8076 25.423 14.7405 25.0733 14.7405H21.4474V15.1174C21.1028 14.7818 20.3416 14.7405 19.8736 14.7405H15.8106L14.8797 15.7526L14.0156 14.7405H7.95703V21.3293H13.9076L14.8591 20.3017L15.7643 21.3241L19.4262 21.3293V19.775H19.7913C20.2748 19.775 20.8508 19.7647 21.3497 19.5478V21.3293H24.3841V19.6046H24.5333C24.7184 19.6046 24.7339 19.6201 24.7339 19.7957V21.3293H33.9143C34.4903 21.3293 35.1126 21.1795 35.4521 20.911V21.3293H38.3631C38.9648 21.3293 39.5614 21.2415 40.014 21.0246V19.8009C39.7209 20.2036 39.2066 20.3947 38.4814 20.3947ZM19.8325 18.8146H18.4335V20.3947H16.2426L14.8642 18.8404L13.4242 20.3998H8.96508V15.6699H13.491L14.8694 17.2242L16.3043 15.6699H19.9045C20.7891 15.6699 21.792 15.9281 21.792 17.2345C21.7869 18.5409 20.8148 18.8146 19.8325 18.8146ZM26.6008 18.6029C26.7602 18.8301 26.786 19.047 26.7911 19.4601V20.3947H25.6596V19.7957C25.6596 19.5169 25.6853 19.1038 25.4745 18.8817C25.3099 18.7113 25.0682 18.6752 24.6567 18.6752H23.4481V20.3947H22.3217V15.6648H24.9139C25.4847 15.6648 25.9013 15.6854 26.2665 15.8971C26.6265 16.1088 26.8477 16.4187 26.8477 16.9454C26.8477 17.6941 26.3436 18.0814 26.0505 18.2001C26.2974 18.2931 26.5082 18.4635 26.6008 18.6029ZM31.2245 16.6562H28.5963V17.5082H31.1679V18.4841H28.5963V19.4187H31.2296V20.3998H27.4751V15.6699H31.2296V16.6562H31.2245ZM34.084 20.3947H31.8931V19.3826H34.0737C34.2846 19.3826 34.4338 19.3516 34.5263 19.269C34.6035 19.1967 34.6601 19.0934 34.6601 18.9592C34.6601 18.8198 34.6035 18.7113 34.5212 18.6442C34.4389 18.5719 34.3206 18.5409 34.1303 18.5409C33.0811 18.5099 31.7593 18.5771 31.7593 17.0744C31.7593 16.3928 32.1862 15.6699 33.3691 15.6699H35.6218V16.682H33.5594C33.3537 16.682 33.22 16.6872 33.1068 16.7595C32.9885 16.8369 32.9423 16.9505 32.9423 17.1003C32.9423 17.2758 33.0451 17.3998 33.1891 17.4514C33.3074 17.4927 33.4309 17.503 33.6211 17.503L34.2229 17.5185C34.8452 17.534 35.2567 17.6373 35.5087 17.9006C35.7298 18.1382 35.8481 18.4118 35.8481 18.9024C35.8533 19.9145 35.2258 20.3947 34.084 20.3947Z" fill="#306FC8"/>
<path d="M25.3708 16.7339C25.2371 16.6617 25.0313 16.6565 24.8359 16.6565H23.4473V17.7099H24.8205C25.0365 17.7099 25.2216 17.7047 25.3708 17.6169C25.5148 17.5343 25.6022 17.3691 25.6022 17.1677C25.5971 16.9611 25.5097 16.8166 25.3708 16.7339Z" fill="#306FC8"/>
</g>
</svg>
