<svg width="40" height="27" viewBox="0 0 40 27" fill="none" xmlns="http://www.w3.org/2000/svg">
<rect y="0.926025" width="40" height="26" rx="2.51813" fill="#F4F5FF"/>
<path d="M6.17719 11.4651H4.7998V16.3508H6.16989C6.89842 16.3508 7.4245 16.1762 7.88627 15.7867C8.43501 15.3256 8.75955 14.6304 8.75955 13.9113C8.7597 12.4696 7.69895 11.4651 6.17719 11.4651ZM7.27337 15.1353C6.97848 15.4057 6.59562 15.5236 5.98933 15.5236H5.73755V12.2929H5.98933C6.59562 12.2929 6.9635 12.4031 7.27337 12.688C7.59791 12.9814 7.79307 13.4363 7.79307 13.9042C7.79307 14.3733 7.59791 14.842 7.27337 15.1353Z" fill="#173C6A"/>
<path d="M10.1298 11.4651H9.19141V16.3508H10.1298V11.4651Z" fill="#173C6A"/>
<path d="M12.4243 13.3405C11.8612 13.129 11.6959 12.9894 11.6959 12.7255C11.6959 12.4176 11.9905 12.1839 12.3949 12.1839C12.6761 12.1839 12.907 12.3012 13.1515 12.5796L13.6425 11.9267C13.239 11.5682 12.7563 11.3849 12.2289 11.3849C11.3777 11.3849 10.7285 11.9853 10.7285 12.7849C10.7285 13.458 11.0308 13.8026 11.912 14.1246C12.2794 14.2562 12.4664 14.3438 12.5607 14.4028C12.7482 14.5271 12.8421 14.7032 12.8421 14.9083C12.8421 15.3042 12.5322 15.5974 12.1136 15.5974C11.666 15.5974 11.3055 15.3701 11.0895 14.9459L10.4834 15.5388C10.9157 16.1832 11.4349 16.4689 12.1489 16.4689C13.124 16.4689 13.808 15.8105 13.808 14.8647C13.8079 14.0884 13.4917 13.737 12.4243 13.3405Z" fill="#173C6A"/>
<path d="M14.1035 13.9126C14.1035 15.3486 15.2139 16.4622 16.6427 16.4622C17.0467 16.4622 17.3926 16.3815 17.8192 16.1775V15.0557C17.444 15.437 17.1118 15.5908 16.6864 15.5908C15.7414 15.5908 15.0707 14.8948 15.0707 13.9055C15.0707 12.9675 15.7626 12.2274 16.6428 12.2274C17.0904 12.2274 17.4292 12.3897 17.8193 12.7772V11.6558C17.4074 11.4436 17.0688 11.3557 16.665 11.3557C15.2431 11.3559 14.1035 12.4921 14.1035 13.9126Z" fill="#173C6A"/>
<path d="M25.2592 14.7468L23.9763 11.4651H22.9512L24.9928 16.4762H25.4977L27.5758 11.4651H26.5586L25.2592 14.7468Z" fill="#173C6A"/>
<path d="M28 16.3508H30.6611V15.5238H28.9376V14.205H30.5976V13.3774H28.9376V12.2929H30.6611V11.4651H28V16.3508Z" fill="#173C6A"/>
<path d="M34.377 12.9075C34.377 11.9928 33.7566 11.4651 32.6745 11.4651H31.2832V16.3508H32.2204V14.3881H32.3428L33.6415 16.3508H34.7955L33.2812 14.2925C33.9878 14.1466 34.377 13.6556 34.377 12.9075ZM32.4946 13.7144H32.2205V12.2347H32.5094C33.0938 12.2347 33.4115 12.4833 33.4115 12.9588C33.4115 13.45 33.0939 13.7144 32.4946 13.7144Z" fill="#173C6A"/>
<path d="M20.6851 16.5245C22.0984 16.5245 23.2441 15.3609 23.2441 13.9255C23.2441 12.4901 22.0984 11.3264 20.6851 11.3264C19.2717 11.3264 18.126 12.4901 18.126 13.9255C18.126 15.3609 19.2717 16.5245 20.6851 16.5245Z" fill="url(#paint0_linear_75_1942)"/>
<path opacity="0.65" d="M20.6851 16.5245C22.0984 16.5245 23.2441 15.3609 23.2441 13.9255C23.2441 12.4901 22.0984 11.3264 20.6851 11.3264C19.2717 11.3264 18.126 12.4901 18.126 13.9255C18.126 15.3609 19.2717 16.5245 20.6851 16.5245Z" fill="url(#paint1_linear_75_1942)"/>
<path d="M34.9756 11.6486C34.9756 11.5629 34.9175 11.5161 34.8155 11.5161H34.6797V11.9455H34.7806V11.7789L34.8989 11.9455H35.0221L34.883 11.7684C34.9428 11.7522 34.9756 11.7082 34.9756 11.6486ZM34.7977 11.7072H34.7806V11.5949H34.7988C34.8486 11.5949 34.8747 11.6132 34.8747 11.6502C34.8747 11.688 34.8483 11.7072 34.7977 11.7072Z" fill="#173C6A"/>
<path d="M34.836 11.3557C34.6307 11.3557 34.4678 11.5221 34.4678 11.73C34.4678 11.9379 34.6326 12.1045 34.836 12.1045C35.036 12.1045 35.1999 11.936 35.1999 11.73C35.1999 11.5249 35.036 11.3557 34.836 11.3557ZM34.8344 12.0376C34.6728 12.0376 34.5407 11.901 34.5407 11.7306C34.5407 11.5596 34.6712 11.4231 34.8344 11.4231C34.9952 11.4231 35.1263 11.5627 35.1263 11.7306C35.1263 11.8995 34.9954 12.0376 34.8344 12.0376Z" fill="#173C6A"/>
<defs>
<linearGradient id="paint0_linear_75_1942" x1="21.995" y1="16.0084" x2="20.1838" y2="13.2163" gradientUnits="userSpaceOnUse">
<stop stop-color="#F89F21"/>
<stop offset="0.2502" stop-color="#F79A23"/>
<stop offset="0.5331" stop-color="#F78E22"/>
<stop offset="0.6196" stop-color="#F68721"/>
<stop offset="0.7232" stop-color="#F48220"/>
<stop offset="1" stop-color="#F27623"/>
</linearGradient>
<linearGradient id="paint1_linear_75_1942" x1="21.7151" y1="15.9701" x2="19.0612" y2="10.8628" gradientUnits="userSpaceOnUse">
<stop stop-color="#F68721" stop-opacity="0"/>
<stop offset="0.3587" stop-color="#E27027" stop-opacity="0.2704"/>
<stop offset="0.703" stop-color="#D4612C" stop-opacity="0.5299"/>
<stop offset="0.9816" stop-color="#D15D2D" stop-opacity="0.74"/>
</linearGradient>
</defs>
</svg>
