<svg width="20" height="16" viewBox="0 0 20 16" fill="none" xmlns="http://www.w3.org/2000/svg">
<path d="M1.02583 0.306885C0.459641 0.306885 0 0.766526 0 1.33272C0 1.89891 0.459641 2.35855 1.02583 2.35855H18.9742C19.5404 2.35855 20 1.89891 20 1.33272C20 0.766526 19.5404 0.306885 18.9742 0.306885H1.02583ZM1.02583 6.97409C0.459641 6.97409 0 7.43373 0 7.99993C0 8.56612 0.459641 9.02576 1.02583 9.02576H18.9742C19.5404 9.02576 20 8.56612 20 7.99993C20 7.43373 19.5404 6.97409 18.9742 6.97409H1.02583ZM1.02583 13.6413C0.459641 13.6413 0 14.1009 0 14.6671C0 15.2333 0.459641 15.693 1.02583 15.693H18.9742C19.5404 15.693 20 15.2333 20 14.6671C20 14.1009 19.5404 13.6413 18.9742 13.6413H1.02583Z" fill="#173C6A"/>
</svg>
