<svg width="40" height="27" viewBox="0 0 40 27" fill="none" xmlns="http://www.w3.org/2000/svg">
<rect y="0.926025" width="40" height="26" rx="2.51813" fill="#F4F5FF"/>
<path d="M23.4994 20.3149H16.5V7.53931H23.4994V20.3149Z" fill="#6C6BBD"/>
<path d="M16.948 13.926C16.948 11.3344 18.1428 9.02592 20.0033 7.53822C18.6427 6.45034 16.9256 5.80103 15.0595 5.80103C10.6417 5.80103 7.06055 9.43865 7.06055 13.926C7.06055 18.4134 10.6417 22.051 15.0595 22.051C16.9256 22.051 18.6427 21.4017 20.0033 20.3138C18.1428 18.8261 16.948 16.5176 16.948 13.926Z" fill="#EB001B"/>
<path d="M32.9393 13.926C32.9393 18.4134 29.3582 22.051 24.9403 22.051C23.0742 22.051 21.3571 21.4017 19.9961 20.3138C21.8571 18.8261 23.0519 16.5176 23.0519 13.926C23.0519 11.3344 21.8571 9.02592 19.9961 7.53822C21.3571 6.45034 23.0742 5.80103 24.9403 5.80103C29.3582 5.80103 32.9393 9.43865 32.9393 13.926Z" fill="#0099DF"/>
<path d="M27.2115 12.5362C27.326 12.5362 27.4906 12.5584 27.6164 12.6086L27.4412 13.1528C27.321 13.1025 27.2008 13.086 27.0857 13.086C26.7139 13.086 26.528 13.3301 26.528 13.7687V15.2575H25.959V12.6029H26.5224V12.9252C26.6701 12.6919 26.8835 12.5362 27.2115 12.5362ZM25.1097 13.1305H24.1802V14.33C24.1802 14.5964 24.2729 14.7744 24.5577 14.7744C24.7054 14.7744 24.8913 14.7242 25.0603 14.6244L25.2242 15.1183C25.044 15.2461 24.7598 15.3242 24.5139 15.3242C23.841 15.3242 23.6063 14.9575 23.6063 14.3408V13.1305H23.0755V12.6029H23.6063V11.7975H24.1802V12.6029H25.1097V13.1305ZM17.8311 13.6969C17.8919 13.3136 18.1209 13.0523 18.5259 13.0523C18.892 13.0523 19.1274 13.2856 19.1875 13.6969H17.8311ZM19.7783 13.9302C19.7727 13.1025 19.2695 12.5362 18.5365 12.5362C17.7711 12.5362 17.2353 13.1025 17.2353 13.9302C17.2353 14.7737 17.793 15.3236 18.5753 15.3236C18.969 15.3236 19.3295 15.2238 19.6469 14.9517L19.3677 14.5239C19.1493 14.7019 18.8701 14.8017 18.6079 14.8017C18.2417 14.8017 17.9081 14.6294 17.8261 14.1521H19.767C19.7727 14.0796 19.7783 14.0078 19.7783 13.9302ZM22.2769 13.2805C22.1185 13.1801 21.7962 13.0523 21.4626 13.0523C21.1509 13.0523 20.965 13.1693 20.965 13.3638C20.965 13.5412 21.1615 13.5914 21.4075 13.6244L21.6754 13.6632C22.2443 13.7471 22.5886 13.9912 22.5886 14.4578C22.5886 14.9632 22.1511 15.3242 21.3969 15.3242C20.97 15.3242 20.5763 15.213 20.2646 14.9797L20.5325 14.5296C20.724 14.6797 21.0088 14.8074 21.4025 14.8074C21.7906 14.8074 21.9984 14.6911 21.9984 14.4851C21.9984 14.3358 21.8507 14.2519 21.539 14.208L21.2711 14.1692C20.6859 14.0853 20.3685 13.819 20.3685 13.3861C20.3685 12.8584 20.7954 12.5362 21.457 12.5362C21.8726 12.5362 22.25 12.6309 22.5229 12.814L22.2769 13.2805ZM29.2901 13.0848C29.173 13.0848 29.0648 13.1057 28.964 13.147C28.8638 13.189 28.7768 13.2475 28.7036 13.3225C28.6304 13.3975 28.5728 13.4878 28.5309 13.5927C28.4889 13.6975 28.4683 13.8132 28.4683 13.9391C28.4683 14.0656 28.4889 14.1807 28.5309 14.2855C28.5728 14.3904 28.6304 14.4807 28.7036 14.5557C28.7768 14.6307 28.8638 14.6892 28.964 14.7312C29.0648 14.7731 29.173 14.7935 29.2901 14.7935C29.4071 14.7935 29.516 14.7731 29.6162 14.7312C29.7169 14.6892 29.8046 14.6307 29.8778 14.5557C29.9523 14.4807 30.0099 14.3904 30.0524 14.2855C30.0944 14.1807 30.115 14.0656 30.115 13.9391C30.115 13.8132 30.0944 13.6975 30.0524 13.5927C30.0099 13.4878 29.9523 13.3975 29.8778 13.3225C29.8046 13.2475 29.7169 13.189 29.6162 13.147C29.516 13.1057 29.4071 13.0848 29.2901 13.0848ZM29.2901 12.5362C29.4929 12.5362 29.6806 12.5718 29.8534 12.6436C30.0261 12.7148 30.1757 12.8133 30.3015 12.9385C30.428 13.0638 30.5262 13.2119 30.5976 13.3822C30.6689 13.5532 30.7046 13.7389 30.7046 13.9391C30.7046 14.1393 30.6689 14.325 30.5976 14.496C30.5262 14.6663 30.428 14.8151 30.3015 14.9403C30.1757 15.0655 30.0261 15.1634 29.8534 15.2352C29.6806 15.3064 29.4929 15.342 29.2901 15.342C29.0873 15.342 28.8995 15.3064 28.7268 15.2352C28.554 15.1634 28.4057 15.0655 28.2805 14.9403C28.1553 14.8151 28.0571 14.6663 27.9857 14.496C27.9144 14.325 27.8787 14.1393 27.8787 13.9391C27.8787 13.7389 27.9144 13.5532 27.9857 13.3822C28.0571 13.2119 28.1553 13.0638 28.2805 12.9385C28.4057 12.8133 28.554 12.7148 28.7268 12.6436C28.8995 12.5718 29.0873 12.5362 29.2901 12.5362ZM14.5089 13.9302C14.5089 13.4636 14.8099 13.0803 15.3019 13.0803C15.7719 13.0803 16.0893 13.4471 16.0893 13.9302C16.0893 14.4133 15.7719 14.7795 15.3019 14.7795C14.8099 14.7795 14.5089 14.3968 14.5089 13.9302ZM16.625 13.9302V12.6029H16.0567V12.9252C15.8758 12.6862 15.6029 12.5362 15.2312 12.5362C14.4982 12.5362 13.9243 13.1191 13.9243 13.9302C13.9243 14.7407 14.4982 15.3242 15.2312 15.3242C15.6029 15.3242 15.8758 15.1742 16.0567 14.9352V15.2575H16.625V13.9302ZM13.4211 15.2575V13.5914C13.4211 12.964 13.0274 12.5419 12.3933 12.5362C12.0597 12.5304 11.7149 12.636 11.4745 13.0085C11.2943 12.7142 11.0095 12.5362 10.6102 12.5362C10.3316 12.5362 10.0581 12.6194 9.84468 12.9303V12.6029H9.27637V15.2575H9.85032V13.7859C9.85032 13.325 10.1019 13.0803 10.49 13.0803C10.8674 13.0803 11.0589 13.3301 11.0589 13.7802V15.2575H11.6329V13.7859C11.6329 13.325 11.8958 13.0803 12.2725 13.0803C12.6612 13.0803 12.8471 13.3301 12.8471 13.7802V15.2575H13.4211Z" fill="white"/>
</svg>
