<svg width="40" height="27" viewBox="0 0 40 27" fill="none" xmlns="http://www.w3.org/2000/svg">
<rect y="0.926025" width="40" height="26" rx="2.51813" fill="#F4F5FF"/>
<path d="M23.4915 20.3169H16.4922V7.54132H23.4915V20.3169Z" fill="#FF5F00"/>
<path d="M16.9402 13.928C16.9402 11.3364 18.1349 9.02793 19.9954 7.54024C18.6349 6.45236 16.9178 5.80304 15.0517 5.80304C10.6339 5.80304 7.05273 9.44067 7.05273 13.928C7.05273 18.4154 10.6339 22.053 15.0517 22.053C16.9178 22.053 18.6349 21.4037 19.9954 20.3158C18.1349 18.8281 16.9402 16.5196 16.9402 13.928Z" fill="#EB001B"/>
<path d="M32.9315 13.928C32.9315 18.4154 29.3504 22.053 24.9325 22.053C23.0664 22.053 21.3493 21.4037 19.9883 20.3158C21.8493 18.8281 23.044 16.5196 23.044 13.928C23.044 11.3364 21.8493 9.02793 19.9883 7.54024C21.3493 6.45236 23.0664 5.80304 24.9325 5.80304C29.3504 5.80304 32.9315 9.44067 32.9315 13.928Z" fill="#F79E1B"/>
<path d="M13.0722 13.9794C13.0722 13.6245 13.3012 13.3329 13.6754 13.3329C14.033 13.3329 14.2743 13.6119 14.2743 13.9794C14.2743 14.3469 14.033 14.6258 13.6754 14.6258C13.3012 14.6258 13.0722 14.3343 13.0722 13.9794ZM14.6819 13.9794V12.9698H14.2496V13.215C14.1125 13.0332 13.9044 12.9191 13.6216 12.9191C13.0642 12.9191 12.6271 13.3629 12.6271 13.9794C12.6271 14.5964 13.0642 15.0397 13.6216 15.0397C13.9044 15.0397 14.1125 14.9256 14.2496 14.7438V14.989H14.6819V13.9794ZM29.2897 13.9794C29.2897 13.6245 29.5187 13.3329 29.8929 13.3329C30.2509 13.3329 30.4918 13.6119 30.4918 13.9794C30.4918 14.3469 30.2509 14.6258 29.8929 14.6258C29.5187 14.6258 29.2897 14.3343 29.2897 13.9794ZM30.8998 13.9794V12.159H30.467V13.215C30.3299 13.0332 30.1219 12.9191 29.8391 12.9191C29.2816 12.9191 28.8446 13.3629 28.8446 13.9794C28.8446 14.5964 29.2816 15.0397 29.8391 15.0397C30.1219 15.0397 30.3299 14.9256 30.467 14.7438V14.989H30.8998V13.9794ZM20.0477 13.3121C20.3262 13.3121 20.5052 13.4896 20.5509 13.8019H19.5192C19.5654 13.5104 19.7397 13.3121 20.0477 13.3121ZM20.0562 12.9191C19.4735 12.9191 19.066 13.3499 19.066 13.9794C19.066 14.6215 19.4902 15.0397 20.0853 15.0397C20.3847 15.0397 20.659 14.9638 20.9003 14.7569L20.6885 14.4315C20.5218 14.5664 20.3095 14.6428 20.11 14.6428C19.8315 14.6428 19.5778 14.5117 19.5154 14.1481H20.9917C20.996 14.0935 21.0003 14.0384 21.0003 13.9794C20.996 13.3499 20.6132 12.9191 20.0562 12.9191ZM25.2759 13.9794C25.2759 13.6245 25.5049 13.3329 25.8791 13.3329C26.2366 13.3329 26.478 13.6119 26.478 13.9794C26.478 14.3469 26.2366 14.6258 25.8791 14.6258C25.5049 14.6258 25.2759 14.3343 25.2759 13.9794ZM26.8855 13.9794V12.9698H26.4532V13.215C26.3157 13.0332 26.1081 12.9191 25.8253 12.9191C25.2678 12.9191 24.8308 13.3629 24.8308 13.9794C24.8308 14.5964 25.2678 15.0397 25.8253 15.0397C26.1081 15.0397 26.3157 14.9256 26.4532 14.7438V14.989H26.8855V13.9794ZM22.8346 13.9794C22.8346 14.592 23.2545 15.0397 23.8953 15.0397C24.1947 15.0397 24.3942 14.972 24.6104 14.7989L24.4028 14.444C24.2404 14.5625 24.07 14.6258 23.8824 14.6258C23.5373 14.6215 23.2835 14.3681 23.2835 13.9794C23.2835 13.5906 23.5373 13.3373 23.8824 13.3329C24.07 13.3329 24.2404 13.3963 24.4028 13.5147L24.6104 13.1598C24.3942 12.9867 24.1947 12.9191 23.8953 12.9191C23.2545 12.9191 22.8346 13.3668 22.8346 13.9794ZM28.408 12.9191C28.1585 12.9191 27.9962 13.0375 27.8838 13.215V12.9698H27.4554V14.989H27.8881V13.8571C27.8881 13.523 28.0295 13.3373 28.3123 13.3373C28.3999 13.3373 28.4913 13.3499 28.5827 13.3881L28.716 12.9742C28.6203 12.936 28.4956 12.9191 28.408 12.9191ZM16.8199 13.1303C16.6119 12.9911 16.3253 12.9191 16.0091 12.9191C15.5055 12.9191 15.1813 13.1642 15.1813 13.5655C15.1813 13.8948 15.4226 14.0979 15.8673 14.1612L16.0715 14.1907C16.3086 14.2245 16.4205 14.2879 16.4205 14.402C16.4205 14.5582 16.2624 14.6471 15.9672 14.6471C15.6678 14.6471 15.4517 14.5499 15.306 14.4358L15.1022 14.7777C15.3393 14.9551 15.6388 15.0397 15.963 15.0397C16.5371 15.0397 16.8699 14.7651 16.8699 14.3807C16.8699 14.0258 16.608 13.8401 16.1753 13.7768L15.9715 13.7468C15.7844 13.7217 15.6345 13.684 15.6345 13.5486C15.6345 13.4006 15.7759 13.3121 16.0129 13.3121C16.2667 13.3121 16.5124 13.4093 16.6328 13.4852L16.8199 13.1303ZM22.3976 12.9191C22.1481 12.9191 21.9858 13.0375 21.8739 13.215V12.9698H21.4454V14.989H21.8777V13.8571C21.8777 13.523 22.0191 13.3373 22.3019 13.3373C22.3895 13.3373 22.4809 13.3499 22.5723 13.3881L22.7056 12.9742C22.6099 12.936 22.4852 12.9191 22.3976 12.9191ZM18.7085 12.9698H18.0015V12.3572H17.5645V12.9698H17.1612V13.3711H17.5645V14.2922C17.5645 14.7607 17.7435 15.0397 18.2548 15.0397C18.4424 15.0397 18.6585 14.9807 18.7956 14.8836L18.6709 14.5074C18.5419 14.5833 18.4005 14.6215 18.2881 14.6215C18.072 14.6215 18.0015 14.4861 18.0015 14.2835V13.3711H18.7085V12.9698ZM12.2448 14.989V13.7217C12.2448 13.2445 11.9454 12.9234 11.4626 12.9191C11.2089 12.9147 10.9471 12.995 10.7638 13.2783C10.6267 13.0544 10.4105 12.9191 10.1068 12.9191C9.89446 12.9191 9.68689 12.9824 9.52455 13.2188V12.9698H9.0918V14.989H9.52836V13.8696C9.52836 13.5191 9.71974 13.3329 10.0154 13.3329C10.3025 13.3329 10.4477 13.523 10.4477 13.8653V14.989H10.8847V13.8696C10.8847 13.5191 11.0842 13.3329 11.3712 13.3329C11.6664 13.3329 11.8078 13.523 11.8078 13.8653V14.989H12.2448Z" fill="white"/>
</svg>
