<svg width="80" height="81" viewBox="0 0 80 81" fill="none" xmlns="http://www.w3.org/2000/svg">
<g clip-path="url(#clip0_75_1587)">
<path d="M40 80.926C62.0914 80.926 80 63.0174 80 40.926C80 18.8346 62.0914 0.926025 40 0.926025C17.9086 0.926025 0 18.8346 0 40.926C0 63.0174 17.9086 80.926 40 80.926Z" fill="white"/>
<path d="M40.0002 79.2817C61.1828 79.2817 78.3548 62.1097 78.3548 40.927C78.3548 19.7444 61.1828 2.57239 40.0002 2.57239C18.8175 2.57239 1.64551 19.7444 1.64551 40.927C1.64551 62.1097 18.8175 79.2817 40.0002 79.2817Z" fill="#EAEAEA"/>
<path d="M39.8217 70.8135C56.4282 70.8135 69.8904 57.3512 69.8904 40.7448C69.8904 24.1383 56.4282 10.676 39.8217 10.676C23.2152 10.676 9.75293 24.1383 9.75293 40.7448C9.75293 57.3512 23.2152 70.8135 39.8217 70.8135Z" fill="white"/>
<mask id="mask0_75_1587" style="mask-type:luminance" maskUnits="userSpaceOnUse" x="12" y="13" width="56" height="55">
<path d="M39.821 67.9704C54.8582 67.9704 67.0483 55.7804 67.0483 40.7431C67.0483 25.7059 54.8582 13.5159 39.821 13.5159C24.7838 13.5159 12.5938 25.7059 12.5938 40.7431C12.5938 55.7804 24.7838 67.9704 39.821 67.9704Z" fill="white"/>
</mask>
<g mask="url(#mask0_75_1587)">
<path d="M58.2265 14.6155C58.2265 14.6155 58.1649 14.4858 58.1641 14.4866C58.8971 14.1403 59.5467 14.5287 60.2197 14.7177C59.5094 15.5862 58.8452 15.5432 58.2265 14.6155Z" fill="#686868"/>
<path d="M27.0869 19.2048C29.145 20.4325 30.5479 18.5423 31.7294 17.7135C33.1493 16.7177 34.4306 16.2174 36.0484 16.2085C36.2657 16.1566 36.4822 16.1582 36.7003 16.2085C37.4439 16.4915 38.1129 16.8556 38.3035 17.7233C38.6927 18.9534 40.0267 19.0021 41.4028 20.1252C37.7805 19.9484 34.7995 20.4269 31.9597 21.58C30.3419 20.4439 28.3836 21.6067 26.7155 20.8047C26.5379 20.6596 26.4244 20.4771 26.3806 20.2517C26.3352 19.7133 26.7188 19.4635 27.0886 19.2056L27.0869 19.2048Z" fill="#DCE2EA"/>
<path d="M50.0498 15.8002C50.6069 16.7879 51.6213 15.9494 52.3211 16.3686C53.0623 17.6864 50.9661 18.2848 51.5191 19.5555C51.4867 19.9042 51.4048 20.2391 51.2621 20.5602C51.0918 20.8806 50.8428 21.1149 50.5063 21.2536C49.92 21.2957 49.7392 20.8887 49.5956 20.4386C49.054 19.0009 47.4775 18.8508 46.498 17.9588C46.2717 17.9467 46.0811 17.8591 45.9222 17.6985C45.7633 17.3896 45.7519 17.0717 45.8654 16.7465C46.1038 16.2081 46.7428 16.14 47.0802 15.7158C47.484 15.8869 47.8879 16.058 48.2917 16.2292C48.9064 16.1245 48.6631 15.1644 49.3694 15.1506C49.7319 15.226 49.9516 15.4499 50.0498 15.8002Z" fill="#515761"/>
<path d="M38.303 17.7231C37.6454 17.2195 36.9877 16.7159 36.3301 16.2123C36.4306 16.1264 36.5312 16.0412 36.6301 15.9537C37.7703 15.4695 38.9364 15.6261 40.1041 15.8085C41.1275 16.2132 42.2652 15.991 43.2934 16.3705C44.0419 16.9714 44.243 17.7758 44.1376 18.6913C42.0649 19.1365 40.2573 17.9882 38.303 17.7231Z" fill="#EAEEF4"/>
<path d="M19.8303 22.0922C20.6899 20.4477 22.1463 19.4949 23.7503 18.7131C24.1517 19.1502 24.4242 19.6514 24.5207 20.2425C24.6009 21.1516 24.1549 21.7687 23.4267 22.2187C22.418 22.1052 22.971 23.6451 21.9995 23.5916C21.5551 23.7554 21.1043 23.8535 20.6307 23.7295C19.9536 23.384 19.2505 23.0499 19.8303 22.0922Z" fill="#E0E5EC"/>
<path d="M22.2704 59.0357C23.4827 58.944 23.4641 57.6377 24.2036 57.0797C24.5645 56.8203 24.9351 56.7748 25.3211 57.0262C26.0071 58.0869 26.5577 59.1622 25.6268 60.3712C25.021 60.6048 24.4145 60.8391 23.8087 61.0727C22.4796 61.0094 20.8481 61.1749 22.2696 59.0357H22.2704Z" fill="#333842"/>
<path d="M36.3307 16.214L36.1904 16.1564L36.0485 16.2099C34.9084 13.1731 34.9076 13.1942 38.4253 13.2606C39.0359 13.272 39.6522 13.0206 40.2653 12.8909C40.648 13.2761 41.017 13.6677 40.8718 14.2824C40.687 14.5468 40.4194 14.6806 40.1177 14.7592C39.7528 14.8444 39.3798 14.9036 39.0221 15.0236C38.8559 15.0893 38.6832 15.1395 38.5105 15.1849C38.3426 15.236 38.1715 15.2782 38.002 15.3236C37.8406 15.3909 37.6777 15.4542 37.5179 15.5272C37.3638 15.618 37.2016 15.6901 37.0354 15.7534C36.7759 15.8231 36.5294 15.9318 36.2748 16.0153L36.3307 16.2148V16.214Z" fill="#6A727D"/>
<path d="M26.6786 20.5253C28.2266 20.5115 29.7779 20.5561 31.3211 20.4653C32.4523 20.3988 32.3088 20.8894 31.9584 21.5811C31.0956 21.5227 30.7388 22.3271 30.1079 22.6645C29.3919 22.2501 28.7034 22.2095 28.0644 22.8234C27.7311 22.9702 27.3857 23.0042 27.0281 22.945C26.5229 22.8112 26.1417 22.5274 25.9196 22.0457C25.7647 21.3354 25.9812 20.8099 26.6794 20.5261L26.6786 20.5253Z" fill="#B2B7C5"/>
<path d="M46.0649 17.7569C47.6154 18.2126 49.4399 18.2321 50.0165 20.2367C49.4716 20.93 48.981 21.7004 47.9422 21.6882C46.8515 21.4158 47.0364 20.5246 47.0275 19.7526C47.0186 19.0341 47.1726 18.2564 46.1063 18.1648L45.9668 17.9726L46.0641 17.7561L46.0649 17.7569Z" fill="#9AA6B3"/>
<path d="M19.8299 22.0909C19.7455 22.8499 20.5029 23.0494 20.8022 23.5538C21.0552 24.102 21.4071 24.5423 22.038 24.6769C23.0492 25.1189 24.1261 24.2487 25.1284 24.8318C25.2946 24.9915 25.3611 25.1878 25.3425 25.4157C24.7035 26.2071 23.895 26.7642 22.9551 27.1405C22.7386 27.2021 22.5189 27.2159 22.295 27.1964C21.8555 27.1056 21.4574 26.9118 21.0706 26.692C20.4551 26.2152 19.6344 26.0587 19.1033 25.4448C18.9184 25.1302 18.83 24.7888 18.8105 24.4263C18.8543 23.8149 18.9233 23.2108 19.3198 22.704C19.4901 22.4996 19.6604 22.2944 19.8307 22.0901L19.8299 22.0909Z" fill="#D4DCE5"/>
<path d="M31.4759 63.4346C30.6585 66.1488 29.8881 66.4318 27.6387 64.8432C27.9444 62.8483 29.4243 62.305 31.4759 63.4346Z" fill="#7091A7"/>
<path d="M19.3487 55.1824C18.3918 55.9584 17.4204 55.8506 17.0076 54.7461C16.5778 53.5954 16.9898 52.5299 18.3481 52.1155C19.069 52.495 19.6771 52.9945 20.0664 53.7284C20.2821 54.4379 19.8053 54.8053 19.3487 55.1824Z" fill="#5B6573"/>
<path d="M25.5723 56.0635C26.6037 55.199 27.6004 55.6921 28.597 56.1429C28.9351 56.846 29.5603 57.3723 29.819 58.1256C29.8774 58.4824 29.8182 58.8027 29.5336 59.0541C28.8224 58.9033 28.1883 59.1676 27.5517 59.4231C26.7075 58.8441 26.727 57.8053 26.264 57.0252C26.0312 56.7065 25.7134 56.447 25.5723 56.0635Z" fill="#7A8B9F"/>
<path d="M31.4754 63.4343C29.8949 63.0848 28.505 63.2518 27.6382 64.8428C26.614 63.238 28.4207 62.2925 28.5456 60.9553C28.9997 61.1556 29.4708 61.2578 29.9704 61.2002C30.1739 61.2116 30.3547 61.2821 30.5088 61.4159C30.7975 62.1044 31.6157 62.5398 31.477 63.4335L31.4754 63.4343Z" fill="#C7D8E5"/>
<path d="M19.8367 53.6839C19.1612 53.3311 18.347 53.1089 18.3486 52.1147C19.0136 51.6858 19.6785 51.256 20.3427 50.827C21.0133 50.7727 21.6507 50.7946 21.9718 51.5398C22.048 52.3402 22.5257 53.2062 21.6109 53.8542C21.0084 53.9198 20.4002 54.0293 19.8367 53.6839Z" fill="#616E81"/>
<path d="M21.8077 49.305H16.6641C18.4027 47.1642 20.5378 47.2801 21.768 49.3366L21.8077 49.305Z" fill="#696C71"/>
<path d="M63.5418 38.1854C63.2385 38.2016 62.9353 38.2178 62.632 38.234C62.4528 38.1181 62.3149 37.964 62.2144 37.7726C61.9857 37.2974 61.9022 36.7533 61.5105 36.3706C60.7093 36.1589 59.5343 36.5522 59.4727 35.1331C59.7135 34.2784 60.5082 34.0376 61.1456 33.6191C62.2452 33.5745 62.7942 34.4163 63.4729 35.0569C63.7202 35.348 63.9059 35.6716 64.0186 36.0373C64.1711 36.8222 64.253 37.5934 63.541 38.1854H63.5418Z" fill="#8691A0"/>
<path d="M22.1766 30.8105C22.0136 31.1503 21.8506 31.49 21.6876 31.8298C21.3097 32.1347 20.8937 32.2466 20.4217 32.0804C19.8403 31.7528 19.2938 31.366 18.7132 31.0319C18.3474 30.7172 18.1098 30.3385 18.1236 29.8366C18.3312 29.0013 19.0294 28.8456 19.7227 28.6794C20.5977 28.647 21.2254 29.1765 21.8871 29.6322C22.1644 29.9793 22.5253 30.3085 22.1766 30.8105Z" fill="#484649"/>
<path d="M38.1855 65.804C38.1855 65.9832 38.1855 66.1632 38.1847 66.3424C37.7217 66.9336 36.8329 66.7398 36.3666 67.3261C34.7926 67.9805 34.6832 66.859 34.5186 65.804C34.9564 65.3353 34.6564 64.4538 35.4292 64.1716C35.7455 64.1327 36.0609 64.1254 36.3699 64.2235C36.9497 64.7782 37.5854 65.2712 38.1855 65.804Z" fill="#89AFC4"/>
<path d="M59.7822 21.4877C60.0879 21.8485 60.3936 22.2102 60.6994 22.5711C60.3936 23.1492 59.8463 23.4444 59.3143 23.7574C59.1237 23.8272 58.9243 23.8564 58.7215 23.8507C58.2658 23.6966 57.7955 23.648 57.313 23.678C57.1435 23.5815 56.9967 23.4574 56.8645 23.3179C56.6448 23.1322 56.3958 22.9968 56.1242 22.8971C55.936 22.8208 55.8014 22.6878 55.709 22.5102C56.0755 21.8834 56.5061 21.3206 57.2124 21.0417C58.0979 21.0255 58.9007 21.4828 59.7822 21.4885V21.4877Z" fill="#585D66"/>
<path d="M56.5674 28.5562C55.9868 28.4678 55.8781 27.9529 55.6527 27.5442C55.5343 26.9206 55.437 26.3002 55.9276 25.7682C56.2325 25.6036 56.5576 25.559 56.899 25.589C57.7894 25.8128 58.7439 25.941 59.0812 27.0098C59.1137 27.2287 59.1064 27.4485 59.065 27.6658C58.8915 28.201 58.5095 28.5213 57.9897 28.6916C57.8129 28.7281 57.6345 28.7135 57.4651 28.6567C57.3507 28.5367 57.2056 28.4613 57.0401 28.4272C56.8844 28.4726 56.7263 28.5148 56.5682 28.557L56.5674 28.5562Z" fill="#8D98A7"/>
<path d="M63.541 38.1843C63.5629 37.3645 63.5856 36.5447 63.6075 35.724C63.9643 35.2959 64.4314 35.2772 64.9285 35.364C66.0873 35.6956 66.6565 36.5349 66.8933 37.6573C67.1731 39.494 66.1108 38.3133 65.548 38.2549C64.9074 37.6216 64.2116 38.4195 63.5564 38.1779L63.541 38.1843Z" fill="#636874"/>
<path d="M22.7451 26.9449C23.4417 26.2572 24.1172 25.5371 25.1454 25.3465C25.4049 25.2565 25.6352 25.306 25.8347 25.4949C25.2386 26.5597 24.834 27.759 23.7271 28.4605C23.453 28.6567 23.1481 28.6575 22.8351 28.6024C22.5124 28.0664 22.5505 27.5101 22.7459 26.9449H22.7451Z" fill="#434549"/>
<path d="M14.9288 34.26C13.9589 33.2358 13.4683 32.1378 14.4009 30.8225C14.5849 30.9004 14.7293 31.0244 14.8371 31.1915C15.0309 31.5215 15.2393 31.841 15.588 32.0381C16.3698 32.3454 17.3274 32.0819 17.9827 32.7849C18.0913 33.5123 17.6429 33.8643 17.0769 34.1392C16.3746 34.4165 15.6521 34.3281 14.9296 34.26H14.9288Z" fill="#C9D2DC"/>
<path d="M61.6438 24.0453L61.8595 24.4922C61.9641 25.2617 61.2918 25.8602 61.3924 26.6297C61.3981 26.8511 61.3656 27.0652 61.3016 27.2768C61.1183 27.5882 60.8377 27.7577 60.4947 27.842C60.1411 27.9053 59.7965 27.8761 59.4592 27.748C59.2378 27.6272 59.1032 27.4439 59.0537 27.1974C59.2037 26.2332 58.9288 25.1944 59.563 24.3146C60.1833 23.6569 60.8677 23.4915 61.6446 24.0453H61.6438Z" fill="#818C9A"/>
<path d="M53.4237 23.1005C51.57 24.5091 50.3228 22.9505 48.915 22.1801C48.9767 22.0893 49.0383 21.9977 49.0991 21.906C49.7762 21.4657 50.6026 21.6733 51.3178 21.3903C51.7816 21.3514 52.1717 21.5322 52.5342 21.7965C52.955 22.1452 53.3191 22.5353 53.4237 23.1013V23.1005Z" fill="#66707C"/>
<path d="M47.0798 15.7141C46.8998 16.1982 46.5657 16.5347 46.0946 16.7383C45.6988 17.0634 45.2991 16.8745 44.8993 16.7504C44.7006 16.6799 44.5092 16.5915 44.3203 16.499C43.8224 16.1706 43.0326 16.1455 43.0342 15.2867C43.168 14.9729 43.3861 14.7564 43.7316 14.6899C45.3785 13.2984 45.7945 15.9265 47.0798 15.7141Z" fill="#3C3F45"/>
<path d="M43.7315 14.6902C43.5393 14.9108 43.3471 15.1321 43.155 15.3527C41.9134 15.4589 40.3589 16.6137 39.8213 14.3593C40.0954 14.3383 40.3703 14.3164 40.6444 14.2953C40.9306 13.9036 41.2258 13.5298 41.7975 13.7949C42.7268 13.4803 43.6837 13.1049 43.7315 14.691V14.6902Z" fill="#1D1E22"/>
<path d="M59.6412 35.1699C60.1091 37.0407 61.5087 34.548 62.1299 35.7003C61.6271 36.1836 61.7885 36.9126 61.4795 37.4697C61.1625 37.9214 60.873 38.4323 60.1739 38.1379C59.4376 37.3059 59.2844 36.2614 59.1084 35.2243C59.273 35.0791 59.4498 35.0613 59.6404 35.1691L59.6412 35.1699Z" fill="#97A2B0"/>
<path d="M53.8174 17.7158C54.3955 17.9851 54.3388 18.53 54.3891 19.0287C54.1231 19.4796 53.6957 19.6872 53.2043 19.7099C52.301 19.752 51.3027 19.7139 51.2549 18.5332C51.1997 17.1506 52.3301 17.5018 53.1508 17.4799C53.3997 17.4734 53.5992 17.6234 53.8166 17.715L53.8174 17.7158Z" fill="#E2E9F2"/>
<path d="M53.8174 17.7168C53.5781 17.7322 53.3357 17.7298 53.0997 17.7663C52.5248 17.8555 51.5865 17.4808 51.5638 18.4077C51.5354 19.5697 52.5645 19.0978 53.1986 19.1383C53.5911 19.1635 53.9917 19.0702 54.3891 19.0297L54.4304 19.1481L54.3445 19.2397C54.2966 20.2233 53.4962 20.1268 52.8637 20.2744C52.1526 20.3182 51.5006 20.1625 50.9402 19.6995C50.3742 18.1644 51.6198 17.3786 52.3204 16.3674C52.8191 16.8175 53.3186 17.2667 53.8174 17.7168Z" fill="#9CACBA"/>
<path d="M15.9185 29.3164C15.2073 27.7643 16.0085 26.6323 16.9662 25.5432C17.246 25.7865 17.5801 25.9592 17.8558 26.213C17.9985 26.3501 18.1007 26.5123 18.1688 26.698C18.232 27.0004 18.1947 27.2899 18.0593 27.5673C17.6401 28.126 17.0643 28.5517 16.7043 29.1631C16.4764 29.3878 16.2388 29.5694 15.9193 29.3156L15.9185 29.3164Z" fill="#CAD3DD"/>
<path d="M62.5969 25.297C63.531 26.1282 64.1271 27.1191 64.0808 28.4157C63.9357 28.5787 63.7565 28.6493 63.5375 28.616C63.1272 28.5131 62.7542 28.3265 62.3949 28.106C61.9579 27.8051 61.5135 27.5124 61.2329 27.0421C61.1688 26.9512 61.1072 26.8588 61.0488 26.7639C61.1599 25.8484 61.8216 25.5127 62.5969 25.297Z" fill="#818C9A"/>
<path d="M46.0648 17.7566C46.0762 17.8936 46.09 18.0298 46.1062 18.1653C45.6058 18.9226 44.8241 18.6283 44.1373 18.6923C43.6102 18.1531 42.9396 17.6495 43.6613 16.7972C43.8924 16.5021 44.1908 16.4364 44.5387 16.541C45.1923 16.7372 45.6886 17.1524 46.1127 17.669L46.0648 17.7566Z" fill="#EDF2F7"/>
<path d="M24.1619 20.3126C23.7062 19.8609 23.7541 19.2795 23.75 18.7118C24.9477 18.3007 25.9062 19.5033 27.0869 19.2049C26.9312 19.5114 26.7747 19.8179 26.6182 20.1245C25.847 20.8064 25.0248 20.8243 24.1619 20.3126Z" fill="#5C6069"/>
<path d="M29.5334 59.0535L29.5375 58.0682C29.2861 57.5419 29.1061 57.0513 30.0168 57.0992C30.775 58.1534 30.925 59.2822 30.4376 60.4904C29.7792 60.9802 29.4369 60.6283 29.1904 60.0217C29.3048 59.699 29.4183 59.3762 29.5326 59.0535H29.5334Z" fill="#37414D"/>
<path d="M19.8473 40.0727C20.4588 40.7676 20.7564 41.4974 19.6259 41.8997C18.6901 42.2321 18.3058 41.6613 18.3228 40.7619C18.305 39.3688 19.0883 39.7483 19.8473 40.0727Z" fill="#9EA7B4"/>
<path d="M28.0676 22.5495C28.1447 22.0005 28.2242 21.3761 28.9483 21.4248C29.64 21.471 30.039 21.9511 30.1079 22.6622C29.6879 23.1107 29.2783 23.5778 28.581 23.5494C28.135 23.3572 27.8057 23.1042 28.0676 22.5495Z" fill="#9697A2"/>
<path d="M25.6259 60.3698C25.4678 59.2808 25.3105 58.1917 25.1523 57.1027C25.4491 56.8164 25.7922 56.784 26.1652 56.9186C26.8577 57.6687 26.951 58.6539 27.2056 59.5768C26.6793 59.8411 26.1522 60.1055 25.6259 60.3698Z" fill="#5C6877"/>
<path d="M54.4395 24.898C54.6195 23.9727 54.8944 23.0978 55.7093 22.5099C55.7904 22.5618 55.8691 22.6177 55.9445 22.6777C56.1294 22.9104 56.2681 23.1667 56.3581 23.4505C56.4878 23.8349 56.6095 24.2217 56.5819 24.6377C56.5016 25.0788 56.2883 25.4275 55.8837 25.644C55.6842 25.7349 55.4742 25.7795 55.2552 25.7851C54.7606 25.6935 54.5068 25.3805 54.4395 24.8972V24.898Z" fill="#62676F"/>
<path d="M57.2576 28.4052C57.7247 28.2617 58.1926 28.1181 58.6596 27.9746C58.8543 28.0954 58.9994 28.2592 59.091 28.4701C59.2362 28.9015 59.2362 29.3378 59.1308 29.7765C59.0294 30.0806 58.8632 30.3336 58.5648 30.4747C57.8512 30.3514 58.1309 31.1704 57.7376 31.3545C56.8967 30.6896 56.887 29.8624 57.2673 28.9582C57.1384 28.8374 57.0946 28.715 57.1343 28.5917C57.1749 28.4676 57.2154 28.4052 57.2576 28.4052Z" fill="#BCCAD8"/>
<path d="M22.7229 28.3147C23.0578 28.3633 23.3927 28.412 23.7276 28.4606C22.6369 28.8669 23.0343 30.252 22.178 30.8123C22.0466 30.4814 21.916 30.1506 21.7847 29.8205C21.2795 29.3032 20.6559 28.9164 20.1855 28.3593C20.205 27.8225 20.5699 27.6449 21.0192 27.5524C21.2373 27.5362 21.4514 27.5581 21.6638 27.6059C22.0839 27.7414 22.4585 27.9457 22.7229 28.3155V28.3147Z" fill="#C7CED8"/>
<path d="M66.0836 33.1933C66.6172 33.7796 66.4177 34.498 66.4428 35.176C66.189 35.4768 65.863 35.6049 65.4738 35.5806C65.0237 35.4338 64.4869 35.4444 64.2509 34.9084C64.0644 34.4429 64.0709 33.9766 64.2493 33.5111C64.362 33.3036 64.5315 33.1576 64.7529 33.0724C65.2078 32.967 65.6384 33.16 66.0836 33.1925V33.1933Z" fill="#41454C"/>
<path d="M20.3132 36.1851C20.3148 36.3473 20.3156 36.5095 20.3172 36.6717C20.052 36.9206 19.7528 37.1079 19.3903 37.1793C18.8057 37.2693 18.2291 37.245 17.6744 37.0212C17.3598 36.357 16.8011 36.9287 16.3843 36.773C15.9172 36.3846 15.8588 35.8332 15.7891 35.2858C15.9642 34.8203 16.3072 34.5949 16.797 34.5763C17.0079 34.6387 17.2057 34.7328 17.3882 34.8552C18.0175 35.3028 18.7546 35.4756 19.486 35.6637C19.8128 35.7561 20.0756 35.9524 20.3132 36.1859V36.1851Z" fill="#696A77"/>
<path d="M65.0335 33.2938C64.8924 33.2768 64.7513 33.2565 64.611 33.2314C63.6744 32.7002 63.5438 31.7977 63.5049 30.8489C63.62 30.2245 63.5462 29.4671 64.4861 29.4006C65.3635 29.9804 65.0367 31.0711 65.5143 31.8212C65.211 32.2656 65.6173 32.9411 65.0326 33.293L65.0335 33.2938Z" fill="#222325"/>
<path d="M61.6442 24.0448C60.9517 23.9905 60.3078 24.1202 59.7418 24.5451C58.8838 24.5857 58.8968 24.1583 59.2155 23.5664C59.488 22.903 59.9843 22.5738 60.6995 22.5706C61.0141 23.062 61.3296 23.5534 61.6442 24.0448Z" fill="#414246"/>
<path d="M22.2701 59.0353C21.7317 60.508 22.6391 60.8883 23.8092 61.0724C22.4047 61.9368 21.426 61.2126 20.9605 60.0076C20.5048 58.8269 21.5833 59.0451 22.2701 59.0361V59.0353Z" fill="#798291"/>
<path d="M59.6411 35.1703C59.4643 35.189 59.2867 35.2068 59.1092 35.2255C58.754 34.9862 58.7499 34.6221 58.7605 34.2532C58.9316 33.1714 60.302 33.5404 60.6621 32.6824C60.881 32.62 61.0821 32.6573 61.2711 32.7781C61.4454 33.0936 61.4551 33.4009 61.2305 33.6969C61.2621 34.794 60.0628 34.5637 59.6403 35.1711L59.6411 35.1703Z" fill="#ACB7C5"/>
<path d="M60.6605 32.8384C60.8714 34.4416 59.0144 33.2731 58.7614 34.2535C58.5903 33.6015 58.4191 32.9503 58.248 32.2984C58.3956 32.1305 58.5748 32.0072 58.7833 31.9253C59.1149 31.8434 59.445 31.8507 59.7758 31.9326C60.217 32.0908 60.5754 32.3316 60.6605 32.8384Z" fill="#C3CFDC"/>
<path d="M21.768 49.3366C23.5074 50.2878 23.453 51.7117 22.8124 53.2914C22.4953 53.1114 22.3534 52.8194 22.291 52.4772C22.4491 51.4676 21.4882 51.003 21.1865 50.2164C21.3933 49.9123 21.6001 49.609 21.8069 49.3049L21.768 49.3366Z" fill="#757E8D"/>
<path d="M19.8368 53.6845C20.3161 53.5685 20.7896 52.9133 21.277 53.6707C21.5251 53.8499 21.8763 53.9229 21.9257 54.304C21.2283 55.0703 20.3631 55.3452 19.3486 55.1822C19.5108 54.6827 19.6738 54.184 19.836 53.6845H19.8368Z" fill="#737F90"/>
<path d="M15.9176 29.3171C16.1001 29.2369 16.2833 29.1574 16.4658 29.0771C16.499 28.8038 16.6482 28.7065 16.9118 28.7836C17.0829 28.9449 17.1956 29.1428 17.2564 29.369C17.3505 30.2781 16.7812 30.8011 16.1406 31.282C15.5941 31.428 15.041 31.5115 14.4799 31.3339C14.4531 31.1628 14.4263 30.9925 14.4004 30.8214C14.9064 30.3203 15.4116 29.8183 15.9176 29.3171Z" fill="#544D4D"/>
<path d="M53.4239 23.1007C53.0655 22.7779 52.7071 22.4544 52.3486 22.1316C52.5684 21.4132 52.5911 20.569 53.5172 20.299C53.8699 20.2657 54.1691 20.376 54.4108 20.6371C54.4416 21.6021 53.9396 22.3538 53.4239 23.0999V23.1007Z" fill="#4C4E55"/>
<path d="M16.4091 36.6871C16.7441 36.6238 17.083 36.1429 17.4106 36.6984C17.5858 36.9068 17.7115 37.142 17.7901 37.4031C17.7415 38.2465 17.7334 39.1377 16.4497 38.5984C16.1894 38.1118 15.9283 37.6245 15.668 37.1379C15.8488 36.8784 16.0815 36.7041 16.4091 36.6863V36.6871Z" fill="#5D5E6A"/>
<path d="M19.3437 36.7423C19.668 36.718 19.9916 36.6945 20.316 36.6702C20.243 37.6635 20.6574 38.721 19.921 39.626C19.7126 39.5481 19.5375 39.424 19.3915 39.2562C19.0331 38.7161 18.5928 38.2336 18.257 37.6757C18.1541 36.8251 18.9609 37.0302 19.3437 36.7423Z" fill="#CFDAE8"/>
<path d="M59.7817 21.4881C58.7381 22.4142 57.992 21.6325 57.2119 21.0413C58.2426 20.1898 59.0762 20.4696 59.7817 21.4881Z" fill="#3E3F42"/>
<path d="M27.2059 59.5773C26.3561 58.9529 26.4226 57.9369 26.1331 57.0732C25.9985 56.6345 26.1833 56.4553 26.6172 56.4788C27.4346 57.2995 27.1135 58.4818 27.5514 59.4225C27.4565 59.5198 27.3413 59.5709 27.2059 59.5773Z" fill="#373E4B"/>
<path d="M19.3187 22.7053C19.3114 23.3192 19.305 23.9338 19.2977 24.5477C18.683 24.894 19.0187 26.3739 17.7026 25.8833C17.5842 25.3992 17.5915 24.9288 17.8672 24.4917C18.2897 23.8462 18.4592 22.9956 19.3187 22.7053Z" fill="#717B8A"/>
<path d="M36.3611 64.3698C36.0384 64.3698 35.7156 64.3698 35.3929 64.3698C35.0823 64.6309 34.7222 64.7915 34.3346 64.9002C33.7767 64.1201 33.7848 63.3919 34.9079 63.5492C35.7083 63.6611 36.7009 63.6019 37.3156 64.3941C36.9912 64.6342 36.6717 64.6658 36.3603 64.3698H36.3611Z" fill="#BED2DF"/>
<path d="M62.5967 25.2977C62.4807 26.2083 61.3779 26.0794 61.0486 26.7654C60.1939 25.6066 61.42 25.1898 61.8587 24.4924C62.1053 24.7608 62.351 25.0293 62.5967 25.2969V25.2977Z" fill="#C4D1DE"/>
<path d="M21.9261 54.3037C21.7096 54.0929 21.4939 53.8813 21.2773 53.6704C22.2829 53.2447 21.2157 52.2813 21.7785 51.7413C22.3494 51.4396 22.4734 51.9278 22.6883 52.2562C22.7297 52.6016 22.7719 52.9463 22.8132 53.2917C22.7313 53.8164 22.4142 54.1351 21.9269 54.3054L21.9261 54.3037Z" fill="#535B66"/>
<path d="M64.4873 29.4015C63.9789 29.7899 64.0981 30.3616 64.0543 30.8855C63.867 31.0217 63.6659 31.0452 63.451 30.9577C62.8785 30.5636 62.5598 30.0105 62.4414 29.3334C62.5306 28.662 62.9944 28.4576 63.5888 28.4163C63.7527 28.4163 63.9173 28.4163 64.0811 28.4163C64.2165 28.7447 64.3519 29.0739 64.4873 29.4023V29.4015Z" fill="#2C2C30"/>
<path d="M16.878 34.7712C16.5755 34.9244 16.273 35.0769 15.9706 35.2302C15.7987 35.458 15.6324 35.4426 15.471 35.218C15.2902 34.8985 15.1094 34.579 14.9277 34.2595C15.407 33.378 16.2674 33.9805 16.9137 33.7502C17.0783 33.884 17.1675 34.056 17.1813 34.2676C17.1464 34.4752 17.045 34.6431 16.8772 34.7712H16.878Z" fill="#4C4C53"/>
<path d="M20.9318 33.827C20.8215 34.5325 21.0235 35.3166 20.412 35.8964C19.8833 35.5729 19.2492 35.5234 18.7026 35.2388C18.3458 34.9266 18.0936 34.5852 18.3855 34.093C18.9621 33.638 19.6206 33.4369 20.3512 33.4564C20.5904 33.5075 20.7834 33.6324 20.9318 33.827Z" fill="#4A4449"/>
<path d="M19.823 39.1174C19.8562 39.2877 19.8886 39.4572 19.9219 39.6275C19.8522 39.7686 19.8278 39.917 19.8481 40.0727C19.2496 40.1011 18.6082 40.0354 18.3236 40.7603C18.0211 40.3581 17.7195 39.9543 17.417 39.5513C17.3108 39.0631 17.6343 38.8709 17.9984 38.7055C18.6804 38.5157 19.2748 38.7152 19.823 39.1174Z" fill="#848A95"/>
<path d="M63.5566 38.1787C64.237 37.7789 64.9717 35.9876 65.5482 38.2557C64.859 38.8882 64.1948 38.8728 63.5566 38.1787Z" fill="#7F8996"/>
<path d="M60.1748 38.1381C60.6476 37.9499 60.9784 37.6191 61.1674 37.1463C61.8437 36.8236 62.2199 37.2647 62.5962 37.7067C62.6084 37.8818 62.6205 38.057 62.6327 38.2321C61.7901 38.8144 60.9703 38.7917 60.1748 38.1381Z" fill="#99A0AB"/>
<path d="M47.9422 21.687C48.6339 21.2029 49.3248 20.7187 50.0165 20.2346C49.9898 20.6133 50.0684 20.9442 50.4204 21.1566C50.5485 22.2846 49.4813 21.5921 49.1359 21.9984C49.0613 22.0576 48.9867 22.1176 48.9137 22.1784C48.5893 22.0146 48.2658 21.8508 47.9414 21.6862L47.9422 21.687Z" fill="#66707C"/>
<path d="M36.3613 64.3694C36.68 64.3775 36.9979 64.3856 37.3166 64.3937C37.8331 64.7246 38.4243 65.0092 38.1867 65.8047C37.1244 65.9028 36.4294 65.5355 36.3621 64.3702L36.3613 64.3694Z" fill="#7498AD"/>
<path d="M22.6879 52.2553C22.3847 52.0834 22.0814 51.9123 21.7781 51.7404C21.2997 51.4363 20.8212 51.1314 20.3428 50.8273C20.6242 50.623 20.9055 50.4194 21.1869 50.2151C22.0076 50.6595 22.7423 51.1671 22.6879 52.2545V52.2553Z" fill="#656D7A"/>
<path d="M65.5253 35.2328C65.8311 35.2141 66.1376 35.1947 66.4433 35.176C66.6322 35.9967 67.1172 36.7638 66.8942 37.659C66.3955 36.8944 65.8092 36.2164 65.0088 35.7493C65.055 35.4509 65.3575 35.4088 65.5262 35.2328H65.5253Z" fill="#8892A0"/>
<path d="M28.0677 22.551C28.2388 22.8843 28.4099 23.2176 28.581 23.5509C28.2761 23.7333 27.9704 23.915 27.6655 24.0974C27.4895 24.2191 27.2957 24.2548 27.0857 24.2191C26.7078 23.9912 26.4824 23.6693 26.4727 23.216C26.5497 22.8746 26.84 22.757 27.1068 22.6143C27.4271 22.5932 27.7474 22.5721 28.0677 22.551Z" fill="#9B9EAB"/>
<path d="M20.9324 33.827C20.7394 33.8027 20.5456 33.7791 20.3526 33.7556C19.9163 33.3899 19.8319 32.9212 19.952 32.3917C20.0347 32.1411 20.1944 31.9554 20.4288 31.8346C20.8488 31.8329 21.2689 31.8321 21.6881 31.8305C21.3954 32.4809 21.5251 33.2902 20.9324 33.827Z" fill="#2A2A2F"/>
<path d="M14.3628 41.3614C14.3717 41.7409 14.2006 41.9648 13.8097 41.9526C13.4716 41.9421 13.1829 41.8099 13.0864 41.4515C12.9956 41.1125 13.058 40.7873 13.4545 40.7265C13.9233 40.6543 14.1576 41.0079 14.362 41.3614H14.3628Z" fill="#A8B2C0"/>
<path d="M27.169 24.0371C27.3345 24.0566 27.4999 24.0769 27.6653 24.0963C27.1399 24.6729 26.8893 25.6103 25.8351 25.4943C25.6056 25.4449 25.3753 25.3954 25.1458 25.3459C25.1288 25.2259 25.1239 25.1059 25.1312 24.9851C25.218 24.7848 25.3372 24.6072 25.4856 24.4466C25.9738 24.0128 26.4417 23.4873 27.169 24.0371Z" fill="#B9C1CC"/>
<path d="M26.618 56.4779C26.4567 56.6758 26.2953 56.8745 26.1339 57.0723C25.8071 57.0821 25.4803 57.0918 25.1535 57.1023C24.8364 57.0942 24.5202 57.0861 24.2031 57.078C24.4464 56.4528 24.9492 56.1771 25.5719 56.0627C25.9206 56.2014 26.2693 56.3401 26.618 56.4779Z" fill="#75808D"/>
<path d="M55.3006 25.5516C55.4644 25.5427 55.6291 25.5346 55.7929 25.5256L55.9705 25.6643L55.9113 25.8816C56.0629 26.4728 56.0986 27.0453 55.6542 27.5448C55.0379 27.4629 54.8636 27.0283 54.8117 26.4947C54.5376 25.9538 54.8984 25.7413 55.3015 25.5516H55.3006Z" fill="#B7C7D6"/>
<path d="M50.0493 15.7992C49.8693 15.6322 49.6884 15.4651 49.5084 15.2989C49.3519 15.1821 49.2951 15.0597 49.3381 14.9323C49.3819 14.8018 49.4289 14.7369 49.4784 14.7369C50.0104 14.3858 50.4556 14.7288 50.6526 15.0921C50.8951 15.5397 50.5188 15.783 50.0501 15.7992H50.0493Z" fill="#7F858D"/>
<path d="M58.7372 32.3109C58.5742 32.3069 58.4104 32.3028 58.2474 32.2988C58.078 31.9841 57.9077 31.6703 57.7382 31.3565C57.9888 31.0646 57.2841 30.2893 58.245 30.3558C59.1305 30.8262 59.3162 31.4725 58.738 32.3118L58.7372 32.3109Z" fill="#A1B3C3"/>
<path d="M49.4787 14.7364C49.4885 14.9238 49.499 15.1111 49.5088 15.2984C49.1033 15.6082 48.697 15.9179 48.2916 16.2277C48.3759 15.4833 47.2771 13.7974 49.4787 14.7364Z" fill="#41454A"/>
<path d="M36.3662 67.3267C36.6744 66.4493 37.3539 66.2571 38.1843 66.3431C38.2581 67.926 37.0279 67.1021 36.3662 67.3267Z" fill="#6E9CB3"/>
<path d="M54.4109 20.6374C54.0646 20.6399 53.7176 20.6423 53.3713 20.6447C53.0575 20.4388 52.7258 20.2425 52.8994 19.7738C53.381 19.5962 53.8635 19.4178 54.3452 19.2402C55.3637 19.6595 54.7093 20.1566 54.4109 20.6383V20.6374Z" fill="#555B64"/>
<path d="M65.0332 33.2942C65.0705 32.763 64.9554 32.1824 65.5149 31.8224C65.7663 32.2538 66.1879 32.6147 66.0842 33.1928C65.7744 33.6478 65.4451 33.8951 65.034 33.2942H65.0332Z" fill="#101112"/>
<path d="M18.8581 35.2083C19.6796 34.7542 20.3008 34.7509 20.4127 35.896C20.467 36.0225 20.4338 36.1181 20.3129 36.1838C20.0178 36.1725 19.7226 36.1619 19.4274 36.1506C19.1249 36.016 18.8525 35.8514 18.7422 35.5116C18.7811 35.4102 18.8192 35.3089 18.8581 35.2075V35.2083Z" fill="#463D40"/>
<path d="M15.4711 35.2179C15.6373 35.2219 15.8035 35.226 15.9698 35.23C16.1166 35.7158 16.2625 36.2015 16.4093 36.6872C16.162 36.8381 15.9146 36.9889 15.6673 37.1389C15.3235 36.5267 15.3113 35.8804 15.4711 35.217V35.2179Z" fill="#514E56"/>
<path d="M30.0176 57.0989C29.6259 57.3073 29.561 57.6771 29.5383 58.0679C28.6504 57.7071 28.5482 56.9618 28.5969 56.1428C29.265 56.1728 29.694 56.5572 30.0176 57.0989Z" fill="#5D6775"/>
<path d="M17.952 39.0238C17.7736 39.1998 17.5952 39.375 17.4168 39.5509C16.9303 39.4009 16.5394 39.1536 16.4502 38.5997C17.4355 38.5584 17.3925 37.8034 17.4695 37.132C17.9212 37.063 18.0785 37.3379 18.1491 37.715C18.3623 38.1943 18.2829 38.6281 17.9512 39.0246L17.952 39.0238Z" fill="#929AAA"/>
<path d="M55.3003 25.5523C55.1373 25.8661 54.9743 26.1807 54.8113 26.4946C53.4101 26.2602 54.2007 25.515 54.4391 24.8987C54.7262 25.1168 55.0133 25.3341 55.3003 25.5523Z" fill="#D2DEE8"/>
<path d="M41.7973 13.7941C41.4129 13.9612 41.0293 14.1282 40.645 14.2945C40.5177 13.8258 40.3912 13.3579 40.2646 12.8892C41.018 12.7805 41.3829 13.3295 41.7973 13.7941Z" fill="#25262C"/>
<path d="M29.1915 60.022C29.6075 60.1785 30.0227 60.3342 30.4387 60.4907C30.4614 60.7996 30.4849 61.1086 30.5076 61.4167C30.3617 61.454 30.2133 61.4816 30.0632 61.4986C29.2604 61.6065 28.8947 61.2862 29.0431 60.4607C29.0577 60.3025 29.1072 60.1558 29.1915 60.022Z" fill="#2F3842"/>
<path d="M29.043 60.4612C29.236 60.9518 29.5904 61.2834 30.0631 61.4992C29.2668 62.13 28.7421 62.0019 28.5459 60.9567C28.7113 60.792 28.8776 60.6266 29.043 60.462V60.4612Z" fill="#7A8896"/>
<path d="M34.335 64.9013C34.5547 64.4602 34.9302 64.3288 35.3924 64.371C34.888 64.7197 35.5984 65.8079 34.5182 65.8063C34.4574 65.5046 34.3958 65.203 34.335 64.9013Z" fill="#6D9BB1"/>
<path d="M17.8676 24.4924C17.8765 24.9928 17.8846 25.4923 17.8935 25.9926C17.8019 26.1832 17.66 26.3202 17.467 26.4054C16.9366 26.33 16.9966 25.9107 16.9658 25.545C17.2667 25.1947 17.5675 24.8436 17.8676 24.4932V24.4924Z" fill="#8693A2"/>
<path d="M57.258 28.4046C57.2612 28.5887 57.2645 28.7727 57.2677 28.9576C57.0358 28.8238 56.8039 28.6892 56.5703 28.5554C56.5687 28.5554 56.7714 28.4257 56.7714 28.4257C56.9433 28.2846 57.1136 28.2854 57.2839 28.4289L57.2588 28.4054L57.258 28.4046Z" fill="#8594A1"/>
<path d="M24.1619 20.3134C24.9809 20.2509 25.7999 20.1877 26.6181 20.1252C26.6554 20.2574 26.6749 20.3912 26.6781 20.5275C26.503 21.0513 26.3278 21.5768 26.1527 22.1023C26.0091 22.2815 25.8316 22.4145 25.6215 22.5069C24.7782 22.6407 23.8521 23.2375 23.2285 22.095C23.4612 21.4608 24.2178 21.1 24.1611 20.3142L24.1619 20.3134Z" fill="#C1C8D2"/>
<path d="M52.8983 19.773C53.0556 20.0633 53.2129 20.3536 53.3703 20.6439C53.0126 21.1281 53.2064 21.9901 52.3485 22.1303C52.0493 21.969 51.75 21.8076 51.4516 21.6462C50.9991 21.4492 50.6723 21.1889 50.9432 20.6301C50.9424 20.3196 50.9416 20.0098 50.9407 19.6992C51.5935 19.7244 52.2463 19.7487 52.8991 19.773H52.8983Z" fill="#484E56"/>
<path d="M50.9433 20.6311C51.1128 20.9693 51.2822 21.3082 51.4517 21.6472C50.7681 22.3429 49.928 22.0186 49.1357 22.0007C49.5647 21.7194 49.9937 21.4388 50.421 21.1582C50.5946 20.983 50.7689 20.8071 50.9433 20.6311Z" fill="#454B53"/>
<path d="M46.1124 17.6681C45.5878 17.3705 45.0639 17.0737 44.5392 16.7761C44.4176 16.6139 44.4217 16.4599 44.5717 16.3163C45.1645 16.1501 45.604 16.5337 46.0938 16.738C46.1002 17.0478 46.1059 17.3575 46.1124 17.6681Z" fill="#5E646D"/>
<path d="M36.2744 16.0148C36.3847 15.4236 36.7731 15.2347 37.3286 15.2882C37.8022 15.3077 38.2758 15.3093 38.7509 15.3028C38.9488 15.2882 39.1451 15.2874 39.3437 15.2955C39.6527 15.3214 39.9381 15.4139 40.1992 15.5826C40.3622 15.7237 40.4409 15.9021 40.4368 16.117C40.3898 16.2086 40.342 16.2994 40.2949 16.391C38.9642 16.164 37.5792 16.524 36.2752 16.014L36.2744 16.0148Z" fill="#908E95"/>
<path d="M44.5715 16.3163C44.5878 16.4712 44.5764 16.6244 44.5391 16.7752C44.2464 16.7817 43.9536 16.7882 43.6609 16.7947C42.5499 16.5636 41.3441 17.1223 40.2931 16.3901L40.251 16.1784C40.9913 15.6683 41.8071 15.6546 42.6489 15.8167C43.2733 16.1006 44.0315 15.8403 44.6129 16.2992L44.5715 16.3155V16.3163Z" fill="#D1D6DE"/>
<path d="M23.2292 22.0931C24.0547 22.6388 24.9184 21.9033 25.7528 22.1677C25.9198 22.595 25.902 23.0297 25.8079 23.4676C25.6814 23.6533 25.5128 23.7854 25.3003 23.8601C24.4424 23.9687 23.5739 24.0449 22.8554 24.6183C22.3859 24.8445 21.9447 24.868 21.5669 24.4407C21.3552 23.9314 21.4395 23.4765 21.815 23.0751C22.0096 22.9794 22.3826 22.8278 22.3729 22.7978C22.2456 22.3996 21.3463 22.282 21.7355 21.8093C22.1621 21.2911 22.7257 21.9495 23.23 22.0931H23.2292Z" fill="#BAC0CC"/>
<path d="M21.8145 23.0764C21.8031 23.5549 21.7926 24.0333 21.7812 24.5109C21.9069 24.6212 21.9491 24.7315 21.9061 24.8418C21.8631 24.9513 21.821 25.0064 21.7788 25.0064C20.8317 24.9407 20.2591 24.6228 20.8025 23.5557C21.1398 23.3959 21.4771 23.2362 21.8145 23.0764Z" fill="#E3EAF4"/>
<path d="M44.6143 16.3011C43.964 16.2606 43.3136 16.2192 42.6624 16.1787C41.871 15.7732 40.9498 16.2801 40.1656 15.8243C39.8705 15.8097 39.5753 15.7943 39.2801 15.7797C38.9979 15.5154 38.749 15.234 38.7871 14.8074C39.0247 14.4109 39.4107 14.3558 39.8218 14.3598C40.4681 16.2517 42.2951 14.1814 43.1555 15.3532C43.4807 15.9176 44.3718 15.6102 44.6143 16.302V16.3011Z" fill="#4F555E"/>
<path d="M38.7944 15.7751C38.2544 15.767 37.6754 15.8749 37.3291 15.2869L37.3356 15.2861C37.4929 15.1458 37.6421 14.9975 37.7824 14.8401C37.9511 14.8288 38.1197 14.8182 38.2876 14.8069C38.5536 15.0785 39.1074 15.201 38.7944 15.7759V15.7751Z" fill="#6D7786"/>
<path d="M38.7941 15.776C38.6254 15.4533 38.4568 15.1305 38.2881 14.807C38.4543 14.807 38.6206 14.807 38.7868 14.807C39.1833 15.0138 39.2693 15.377 39.2798 15.7793L39.0374 15.7914L38.7949 15.776H38.7941Z" fill="#595F69"/>
<path d="M25.6892 23.4301C25.257 22.9873 25.3535 22.5705 25.7517 22.1683C25.8855 22.1456 26.0193 22.1237 26.1531 22.1018C26.471 22.2721 26.7888 22.4432 27.1067 22.6143C26.9413 22.7716 26.7767 22.9289 26.6113 23.0863C26.3761 23.3944 26.2163 23.9045 25.6892 23.4301Z" fill="#9397A6"/>
<path d="M21.7783 25.0059C21.7791 24.8413 21.7799 24.6767 21.7808 24.5112C22.1676 24.5161 22.5446 24.4975 22.7749 24.1115C23.7513 23.6371 24.7098 23.5171 25.6245 24.2566C25.8134 24.4869 25.811 24.7148 25.6164 24.9402C25.455 24.9556 25.2928 24.971 25.1306 24.9864C24.0116 24.7415 22.9031 26.2239 21.7783 25.0067V25.0059Z" fill="#E7EEF6"/>
<path d="M19.4682 25.4232C20.2426 25.48 21.0471 25.484 21.296 26.4636C21.4663 26.7036 21.4387 26.9185 21.2149 27.1099C20.0504 27.4213 19.2549 26.9518 18.7197 25.9316C18.7951 25.5075 18.9776 25.2383 19.4682 25.4224V25.4232Z" fill="#383E46"/>
<path d="M19.4681 25.4244C19.2646 25.628 19.0611 25.8323 18.8575 26.0359C18.8105 26.8087 18.3766 26.7835 17.8333 26.5305C17.7076 26.4989 17.5852 26.4567 17.4668 26.4048C17.6095 26.267 17.7514 26.1299 17.8941 25.9921C18.5656 25.7083 18.2347 24.4505 19.2987 24.5487C19.3554 24.8406 19.4122 25.1325 19.4689 25.4244H19.4681Z" fill="#4E5965"/>
<path d="M22.7223 28.3144C22.3306 28.3882 21.9244 28.5049 21.7216 27.9925C21.4678 27.411 21.7841 27.1175 22.2698 26.9107C22.4304 26.8993 22.5885 26.9107 22.7458 26.9447C22.9867 27.4053 23.1391 27.8651 22.7231 28.3152L22.7223 28.3144Z" fill="#09090B"/>
<path d="M22.269 26.9099C22.0865 27.2708 21.9033 27.6317 21.7208 27.9917C21.5813 27.9901 21.4516 27.956 21.3299 27.8879C21.0031 27.5863 21.0031 27.2708 21.2934 26.9448C21.2845 26.7843 21.2853 26.6237 21.2959 26.4631C21.6535 26.5402 22.11 26.4007 22.2698 26.9091L22.269 26.9099Z" fill="#434549"/>
<path d="M61.2324 33.6956C61.2008 33.3956 61.1692 33.0964 61.1367 32.7963C61.6127 32.0624 62.0798 31.3002 63.0878 32.1443C63.8663 33.0436 64.3788 34.0021 63.7608 35.2088C63.5484 35.4221 63.3302 35.4269 63.1081 35.2242C62.4828 34.7149 61.8576 34.2057 61.2316 33.6964L61.2324 33.6956Z" fill="#4D5460"/>
<path d="M62.5958 37.7076C62.1198 37.5211 61.643 37.3346 61.167 37.1473C61.1873 36.4653 61.4832 35.9666 62.1304 35.7014C62.2852 36.3704 62.4409 37.0386 62.5958 37.7076Z" fill="#808898"/>
<path d="M63.1074 35.2237C63.2574 35.1791 63.4083 35.1369 63.5591 35.0972C63.8737 34.9366 64.0578 34.4038 64.5509 34.7493C64.8752 34.9098 65.2004 35.0704 65.5248 35.2318C65.3528 35.4037 65.1801 35.5756 65.0082 35.7483C64.5411 35.7402 64.0748 35.7321 63.6078 35.724C63.4407 35.5578 63.2745 35.3907 63.1074 35.2237Z" fill="#A0ABBA"/>
<path d="M16.7649 28.9915C16.6733 29.0458 16.5736 29.075 16.4665 29.0775C16.3303 28.0006 17.2628 27.853 17.8913 27.441C18.9982 26.8288 19.6007 27.5894 20.2227 28.2974C21.1025 28.4368 21.7002 28.865 21.7845 29.8203C20.9566 30.0051 20.517 29.3532 19.9518 28.9704C18.8904 29.0945 17.8313 29.6289 16.7649 28.9915Z" fill="#E8EDF3"/>
<path d="M15.9299 31.3322C15.8261 30.4378 16.8998 30.1856 16.9882 29.3966C17.6661 28.8873 17.9977 29.3309 18.2954 29.8701C18.4843 30.1913 18.674 30.5116 18.863 30.8327C19.0333 31.0743 19.0138 31.2998 18.8038 31.509C17.9556 32.015 17.0879 32.002 16.2056 31.6055C16.1132 31.5155 16.0224 31.4238 15.9307 31.3322H15.9299Z" fill="#D8DDE6"/>
<path d="M18.8466 31.3659C18.8523 31.1883 18.858 31.0107 18.8636 30.8323C19.5286 30.9417 20.4133 30.7106 20.4279 31.8346C20.35 31.9659 20.3014 32.1078 20.2835 32.2595C20.1084 32.4582 19.8886 32.5766 19.6259 32.6147C18.8758 32.5044 18.3706 32.2408 18.8466 31.3659Z" fill="#D4DCE7"/>
<path d="M18.2957 29.8711C17.8602 29.7129 17.4239 29.5556 16.9885 29.3975C16.8668 29.2888 16.7922 29.1534 16.7646 28.992C17.8269 28.9847 18.8884 28.9774 19.9507 28.9709C19.551 29.5491 18.5827 29.0853 18.2957 29.8711Z" fill="#C7CED8"/>
<path d="M59.2157 23.5673C59.223 23.9833 59.3244 24.3498 59.742 24.5452C59.6796 25.5248 59.8815 26.545 59.292 27.4426C59.1144 27.5854 58.9611 27.5708 58.8362 27.3729C58.7089 26.0941 57.3725 26.5806 56.7871 25.9708C56.2194 25.6278 56.6452 24.945 56.294 24.5282C56.1489 24.1966 56.0045 23.8649 55.8594 23.534C56.2689 23.1935 56.6508 22.7661 57.272 23.0718C57.3044 23.1902 57.3101 23.3094 57.289 23.4302C57.7147 23.9581 58.181 24.0968 58.7154 23.5794C58.8817 23.5754 59.0479 23.5713 59.2149 23.5681L59.2157 23.5673Z" fill="#34363B"/>
<path d="M58.7153 23.5786C58.6666 24.0287 58.8921 24.7253 58.2652 24.7845C57.3846 24.8672 57.3319 24.0944 57.2881 23.4302C57.7852 23.2753 58.2685 23.251 58.7153 23.5778V23.5786Z" fill="#232427"/>
<path d="M57.2728 23.0705C56.8017 23.2246 56.3305 23.3795 55.8594 23.5335C55.8878 23.2481 55.9161 22.9626 55.9437 22.678C56.4327 22.6529 57.1155 21.9741 57.272 23.0713L57.2728 23.0705Z" fill="#222225"/>
<path d="M56.2931 24.5282C56.8721 24.868 56.7554 25.4446 56.7862 25.9708C56.4942 25.9408 56.2023 25.9116 55.9104 25.8816C55.8763 25.7608 55.8374 25.6424 55.792 25.5248C55.959 25.1924 56.1261 24.8599 56.2931 24.5274V24.5282Z" fill="#444850"/>
<path d="M58.8361 27.3721C58.987 27.3997 59.1386 27.4232 59.291 27.4419C59.4703 27.437 59.6487 27.4322 59.8263 27.4273C59.8936 27.6414 59.8871 27.8506 59.7954 28.0574C59.6803 28.2463 59.5286 28.3996 59.347 28.5253C59.2416 28.5504 59.1345 28.5755 59.0283 28.5999C58.9424 28.5334 58.8564 28.4661 58.7704 28.3988C58.7072 28.2633 58.6699 28.1214 58.6602 27.973C58.7185 27.7727 58.7769 27.5716 58.8353 27.3713L58.8361 27.3721Z" fill="#5B6571"/>
<path d="M57.284 28.429C57.1129 28.4281 56.9426 28.4265 56.7715 28.4257C56.9442 28.0259 57.1153 28.0762 57.284 28.429Z" fill="#B8CAD8"/>
<path d="M19.9099 32.4108C20.0291 32.3476 20.1532 32.2973 20.2829 32.26C20.3056 32.7587 20.3283 33.2574 20.351 33.7561C19.7307 34.0805 19.0885 34.3238 18.3692 34.2678C17.8745 34.6692 17.3904 34.6352 16.9152 34.2338C16.9063 34.0724 16.9055 33.9118 16.9152 33.7505C17.2096 33.4585 17.5039 33.1658 17.7991 32.8739C17.9094 32.6995 18.0675 32.5998 18.2711 32.5722C18.8338 32.689 19.4015 32.8479 19.9107 32.4108H19.9099Z" fill="#606270"/>
<path d="M18.3708 32.7869C18.1794 32.8161 17.9888 32.8453 17.7974 32.8736C16.8722 32.4658 15.7199 33.258 14.8936 32.3255C15.1993 31.7992 15.7329 31.6978 16.264 31.5908C16.9695 31.9824 18.6984 30.5755 18.3699 32.7861L18.3708 32.7869Z" fill="#2F3033"/>
<path d="M15.9833 31.7162C15.7676 32.1824 15.3524 32.2919 14.8951 32.3252C14.4928 32.1046 14.2828 31.8046 14.4807 31.3334C14.964 31.0245 15.4473 31.0196 15.9306 31.3326L16.019 31.2848C16.1398 31.391 16.1755 31.4907 16.1244 31.5832C16.0757 31.6724 16.0287 31.717 15.9833 31.717V31.7162Z" fill="#323031"/>
<path d="M61.2317 27.0411C61.9186 26.9462 62.3273 27.3647 62.7068 27.8383C62.5065 28.6573 61.9891 29.0976 61.1433 29.1471C60.7476 29.0644 60.493 28.8259 60.3689 28.444C60.3122 28.0548 60.4087 27.7191 60.7184 27.4587L61.2317 27.0419V27.0411Z" fill="#383C44"/>
<path d="M60.7189 27.458C60.6873 27.7515 60.6548 28.0459 60.6232 28.3394C60.551 28.543 60.4091 28.6233 60.1967 28.5787C60.0207 28.4887 59.878 28.3613 59.7677 28.1967C59.7482 28.1018 59.7296 28.0062 59.7109 27.9105C59.7482 27.7499 59.7864 27.5885 59.8253 27.428C60.1245 27.4377 60.4221 27.4483 60.7197 27.458H60.7189Z" fill="#838E9D"/>
<path d="M20.222 28.297C19.2375 28.5752 18.8661 27.1861 17.8906 27.4407C17.8711 27.1374 17.8525 26.8333 17.833 26.5301C18.1744 26.3654 18.5158 26.2 18.8572 26.0354C19.7322 26.17 20.2909 27.152 21.2932 26.9469C21.3053 27.2607 21.3175 27.5753 21.3297 27.8892C20.9185 27.9119 20.4896 27.8859 20.222 28.297Z" fill="#8693A2"/>
<path d="M61.1846 28.9089C61.6922 28.5529 62.199 28.1969 62.7075 27.8401C63.1064 27.8725 63.4713 27.956 63.5889 28.4166C63.2613 28.7272 62.9337 29.037 62.6061 29.3476C61.963 29.7482 61.3581 30.0263 61.1846 28.9089Z" fill="#202126"/>
<path d="M58.7372 32.3106C58.8021 31.601 58.5693 30.9661 58.2441 30.3547C58.4201 30.1665 58.5969 29.9784 58.7729 29.7911C59.7022 29.8122 59.8514 30.5452 60.0768 31.2118C60.1255 31.5727 60.0792 31.9149 59.8708 32.223C59.4929 32.2522 59.1151 32.2814 58.738 32.3106H58.7372Z" fill="#B3C3D2"/>
<path d="M59.7379 31.3451C59.4168 30.8277 59.0949 30.3095 58.7738 29.7914C58.7729 29.3275 58.7713 28.8637 58.7705 28.4006C58.8889 28.4031 59.0057 28.4128 59.1224 28.429C60.0501 29.2489 61.4903 29.96 59.7371 31.3443L59.7379 31.3451Z" fill="#717B89"/>
<path d="M64.551 34.7505C64.221 34.8664 63.8901 34.9832 63.5601 35.0992C63.822 33.9663 63.1782 33.1392 62.6113 32.2861C63.0298 31.8652 63.003 31.1451 63.5877 30.8362C63.7442 30.8435 63.8991 30.8597 64.0539 30.8856C64.2396 31.6682 64.4245 32.4507 64.6102 33.2324C64.5908 33.7384 64.5705 34.2445 64.551 34.7505Z" fill="#5C6470"/>
<path d="M16.9154 34.2327C17.4003 34.244 17.8853 34.2554 18.3694 34.2667C18.5324 34.5805 18.6945 34.8952 18.8575 35.209V35.2204C18.2048 35.5877 17.5585 35.5861 16.9186 35.1871C16.9227 35.0468 16.9089 34.9073 16.8789 34.7703C16.8911 34.5911 16.9032 34.4119 16.9154 34.2327Z" fill="#42383C"/>
<path d="M16.918 35.1877C17.5643 35.1991 18.2106 35.2096 18.8569 35.221C19.0466 35.5315 19.2356 35.8421 19.4261 36.1527C18.5155 36.0246 17.6048 35.8965 16.918 35.1877Z" fill="#6A6974"/>
<path d="M17.9435 37.6122C17.7853 37.4517 17.6272 37.2911 17.4691 37.1305C17.4261 36.9894 17.4066 36.8451 17.4107 36.6975C18.0554 36.7121 18.7 36.7267 19.3439 36.7421C19.0309 37.0308 18.7179 37.3195 18.4049 37.6074C18.2524 37.7866 18.0991 37.7882 17.9435 37.6122Z" fill="#BBC4D2"/>
<path d="M63.589 30.8355C63.5931 31.5402 63.6093 32.2538 62.6127 32.2854C61.9607 31.9951 61.771 33.0347 61.1376 32.7971C60.9787 32.8101 60.8206 32.8239 60.6616 32.8377C60.3981 32.6333 60.1353 32.4282 59.8718 32.223C59.8272 31.9303 59.7826 31.6375 59.738 31.3448C60.9406 30.0773 59.0317 29.4635 59.1233 28.4295L59.2847 28.3971C59.4055 28.2674 59.5555 28.2017 59.7307 28.1895C59.9002 28.2074 60.068 28.2357 60.2343 28.2739C60.3592 28.3274 60.4889 28.3493 60.6243 28.3403C60.8117 28.5293 60.9982 28.7182 61.1855 28.9072C61.5163 29.5154 62.0767 29.3824 62.607 29.3467C62.9346 29.8422 63.2614 30.3384 63.589 30.8347V30.8355Z" fill="#464B53"/>
<path d="M17.9434 37.6137C18.0974 37.6283 18.2507 37.6266 18.4048 37.6096C19.2952 37.7199 19.4971 38.4773 19.8222 39.1179C19.1978 39.0871 18.5743 39.0571 17.9507 39.0255C17.949 38.5543 17.9458 38.084 17.9434 37.6145V37.6137Z" fill="#A9B4C2"/>
<path d="M25.617 24.9388C25.6486 24.8017 25.6648 24.6631 25.6656 24.522C25.3842 24.2 25.3753 23.8797 25.6729 23.5627C25.6729 23.5627 25.6891 23.4313 25.6891 23.4297C25.9965 23.3137 26.3046 23.1986 26.612 23.0842C26.7968 23.4021 26.9825 23.7192 27.1682 24.0362C26.4068 23.917 26.196 24.7442 25.617 24.9388Z" fill="#D2DAE4"/>
<path d="M40.165 15.8229C41.0092 15.8603 41.9101 15.4945 42.6618 16.1773C41.8582 16.1773 41.0554 16.1781 40.2518 16.1789C40.2348 16.0573 40.2056 15.9389 40.165 15.8229Z" fill="#575962"/>
<path d="M25.6736 23.5624C25.6712 23.8819 25.6687 24.2022 25.6663 24.5217C24.7646 23.9516 23.7761 23.9914 22.7754 24.1089C23.5806 23.0758 24.6381 23.3759 25.6736 23.5616V23.5624Z" fill="#C1C8D2"/>
<path d="M15.9828 31.7157C15.9528 31.5681 15.965 31.4245 16.0185 31.2834C16.9616 31.3102 17.9039 31.3378 18.8462 31.3645C18.9013 32.0165 19.2889 32.3311 19.9093 32.409C19.6579 33.6019 19.0416 33.3051 18.371 32.7853C18.221 30.9883 16.7775 32.0757 15.9828 31.7157Z" fill="#979FAD"/>
<path d="M59.8581 28.3955C59.6668 28.3955 59.4746 28.3963 59.2832 28.3971C59.4259 28.2349 59.5678 28.0735 59.7097 27.9114L59.7406 27.9065C59.82 28.0598 59.8614 28.2219 59.8581 28.3947V28.3955Z" fill="#202226"/>
<path d="M59.8578 28.3947C59.8181 28.2317 59.7792 28.0695 59.7402 27.9065C59.904 28.0298 60.0687 28.1522 60.2325 28.2746C60.1092 28.3192 59.9851 28.3598 59.8578 28.3955V28.3947Z" fill="#67707C"/>
</g>
<path d="M39.7317 60.1981C50.7965 60.1981 59.7662 51.2283 59.7662 40.1636C59.7662 29.0989 50.7965 20.1292 39.7317 20.1292C28.667 20.1292 19.6973 29.0989 19.6973 40.1636C19.6973 51.2283 28.667 60.1981 39.7317 60.1981Z" fill="white"/>
<mask id="mask1_75_1587" style="mask-type:luminance" maskUnits="userSpaceOnUse" x="25" y="25" width="30" height="30">
<path d="M40.0004 54.8233C48.0972 54.8233 54.6609 48.2595 54.6609 40.1627C54.6609 32.0659 48.0972 25.5022 40.0004 25.5022C31.9036 25.5022 25.3398 32.0659 25.3398 40.1627C25.3398 48.2595 31.9036 54.8233 40.0004 54.8233Z" fill="white"/>
</mask>
<g mask="url(#mask1_75_1587)">
<path d="M42.6842 32.6988C41.2594 31.8887 39.713 32.4102 38.225 32.2885C37.9671 31.5287 38.6134 31.3843 39.0391 31.0875C39.2427 31.0081 39.4543 30.957 39.6676 30.9237C40.442 30.871 40.3374 30.2977 40.3317 29.7868C40.4282 29.0416 40.4582 28.2972 40.3293 27.5511C40.3196 27.3322 40.3463 27.1181 40.3966 26.9057C40.5961 26.2496 41.0186 25.7769 41.6089 25.4444C43.0532 25.2968 44.3433 25.8458 45.6465 26.3356C45.6375 26.6137 45.5435 26.87 45.4543 27.1279C45.3262 27.5933 45.4632 28.0661 45.4186 28.5356C45.3351 29.0562 45.1356 29.5265 44.8226 29.949C44.409 30.5053 43.4627 30.4388 43.2883 31.2741C43.174 31.7882 43.0832 32.3104 42.6834 32.6996L42.6842 32.6988Z" fill="#818F9E"/>
<path d="M27.3672 32.7194C27.6032 31.4705 28.1781 30.4512 29.3345 29.8284C29.8267 29.4489 30.3749 29.3232 30.9814 29.4651C31.1931 29.5454 31.3731 29.676 31.5247 29.8438C31.8467 30.4877 32.0575 31.2362 32.9382 31.3749C33.1547 31.4551 33.3558 31.5589 33.5496 31.6822C34.1659 32.249 34.9046 32.7745 34.2883 33.7727L34.2754 33.7857C33.2488 34.7037 31.9643 34.389 30.7738 34.522C30.5606 34.5715 30.3449 34.5974 30.1259 34.6112C29.5558 34.6258 29.079 34.3817 28.6249 34.0728C28.1254 33.6981 27.4937 33.4419 27.3672 32.7202V32.7194Z" fill="#E8EFF6"/>
<path d="M34.291 34.2324C33.6479 35.4212 33.0057 36.61 32.3626 37.7988C32.0609 37.7421 31.7593 37.6869 31.4876 37.5361C31.0668 37.2604 30.6232 37.0528 30.0969 37.0958C29.7669 37.095 29.4563 37.0268 29.1692 36.8606C28.8011 36.5606 28.5764 36.19 28.5959 35.7002C28.7508 34.7068 29.8512 34.8698 30.3369 34.2795L30.3021 34.1367C31.6263 34.3857 32.9627 34.1295 34.291 34.2332V34.2324Z" fill="#525158"/>
<path d="M32.2861 39.1831C31.7306 40.1181 33.4206 42.2297 30.773 42.0684C30.5013 41.7724 30.1567 41.5648 29.8493 41.3094C29.3757 40.899 28.6889 40.6476 28.7367 39.8424C29.13 39.1458 29.842 38.9877 30.5248 38.7744C31.176 38.6374 31.7566 38.7996 32.2861 39.1831Z" fill="#9EA9B8"/>
<path d="M53.8529 36.249C54.4537 37.8173 53.7596 38.5569 52.2335 38.6388C51.0138 38.7045 49.7869 38.6453 48.5633 38.6412C48.2851 38.042 48.5633 37.5806 48.9314 37.141C49.1187 37.034 49.3231 36.9797 49.5388 36.974C50.3448 37.1248 51.1557 37.1532 51.9659 36.9967C52.806 37.283 53.0209 35.9831 53.8529 36.249Z" fill="#4A4445"/>
<path d="M33.3456 31.9777C33.164 31.916 32.9832 31.8552 32.8015 31.7936C31.899 31.4149 31.8714 30.4199 31.3678 29.7606L31.3767 29.7671C30.9251 29.5563 30.4628 29.356 30.4004 28.7664C30.5455 28.6391 30.6907 28.5118 30.8359 28.3837C31.5908 27.8388 32.4698 28.258 33.2694 28.0723C34.3958 28.3367 33.9822 29.2822 34.1192 29.9844C34.0495 30.5034 33.8695 30.9932 33.7049 31.4887C33.6246 31.6801 33.5054 31.8439 33.3456 31.9777Z" fill="#30343B"/>
<path d="M34.289 33.7734C34.2996 33.0046 33.6127 32.6016 33.3459 31.978L33.2227 31.8912L33.2608 31.7453C33.6451 31.4501 34.062 31.2238 34.5477 31.1436C35.1461 31.0057 35.7462 30.8476 36.3463 31.1379C36.7347 31.476 37.0996 31.8223 36.7364 32.394C36.1363 33.2357 35.6011 34.1926 34.289 33.7725V33.7734Z" fill="#C4D0DC"/>
<path d="M25.4237 39.6591C25.4318 39.0137 25.4391 38.369 25.4472 37.7235C25.6815 37.2183 26.0375 36.9166 26.6344 37.0147C27.9959 37.3245 28.6179 38.09 28.1702 39.5132C27.828 40.1124 27.2734 40.3411 26.6198 40.3971C26.0821 40.3776 25.7553 40.0151 25.4229 39.66L25.4237 39.6591Z" fill="#494A51"/>
<path d="M46.9994 36.7431C45.8212 35.7749 45.8536 33.8336 44.1904 33.2554C44.3404 33.0843 44.5237 32.961 44.737 32.8815C45.0646 32.7899 45.3979 32.7721 45.7352 32.8094C46.1853 32.8734 46.5778 33.0559 46.8981 33.3835C47.3141 33.8684 47.8614 34.2268 48.2458 34.7466C48.5402 35.6759 47.9425 36.1682 47.3141 36.645C47.2095 36.6791 47.1049 36.7115 46.9994 36.7431Z" fill="#575E68"/>
<path d="M48.6672 28.2442C48.8334 28.3869 48.9988 28.5304 49.1651 28.6731C49.4667 29.2497 49.5754 29.9025 49.8803 30.4782C50.0141 30.7775 50.0757 31.097 50.1544 31.4124C50.2055 31.5292 50.173 31.6151 50.0579 31.6703C50.3222 32.0036 50.3701 32.3685 50.2176 32.7634C49.8827 33.2232 49.4262 33.447 48.8618 33.4624C46.9618 32.7602 48.0679 31.2259 47.9106 30.0379C47.9763 29.3608 47.9965 28.6642 48.668 28.2442H48.6672Z" fill="#707F91"/>
<path d="M53.8524 36.2492C53.1323 36.3684 53.1664 37.9238 52.0117 37.2158C51.7254 37.4916 51.3921 37.4616 51.0483 37.3618C50.6436 37.0383 50.599 36.6069 50.6801 36.1398C50.7499 35.937 50.8674 35.7627 51.0321 35.6248C51.5608 35.5754 51.8981 35.1586 52.3368 34.9242C53.1258 34.719 53.5978 35.1326 53.9635 35.7521C53.9262 35.9176 53.8897 36.083 53.8524 36.2484V36.2492Z" fill="#433E42"/>
<path d="M27.3673 32.7188C27.8611 33.0715 28.355 33.4243 28.848 33.777C29.2072 34.4971 28.7199 35.0461 28.4709 35.6438C27.8692 36.0492 27.4735 35.5067 26.9967 35.3299C26.7096 35.1791 26.4437 35.0031 26.2969 34.6974C26.6148 34.0171 26.6156 33.1656 27.3665 32.7188H27.3673Z" fill="#63646D"/>
<path d="M49.0445 37.2022C48.8847 37.6814 48.7242 38.1615 48.5644 38.6407C46.9637 38.8978 47.1129 37.713 47.001 36.744C47.091 36.7951 47.1778 36.7902 47.2613 36.7278C48.0349 36.212 48.7582 35.8877 49.0453 37.2013L49.0445 37.2022Z" fill="#393538"/>
<path d="M40.7667 26.9951C40.7886 27.1346 40.7529 27.2562 40.6588 27.3616C39.2 28.7248 38.7961 27.5822 38.3996 26.4137C38.3469 26.0277 38.432 25.6798 38.6964 25.3838C39.1886 25.1697 39.6873 25.1584 40.1917 25.3408C40.5615 25.8306 40.9978 26.2969 40.7675 26.9951H40.7667Z" fill="#191B1E"/>
<path d="M33.795 28.3315C32.8089 28.3485 31.822 28.3664 30.8359 28.3834C31.9485 27.6649 33.4406 27.5887 34.258 26.3691C34.734 26.7591 34.9335 27.2838 34.9927 27.8774C34.9773 28.1158 34.8905 28.3234 34.7251 28.4969C34.3788 28.6461 34.0577 28.6534 33.7942 28.3315H33.795Z" fill="#CAD1D9"/>
<path d="M25.4235 39.6582C25.8135 39.6753 26.2133 39.6688 26.4574 40.0613C26.5766 40.2088 26.6845 40.3637 26.7826 40.5267C26.8791 40.8049 26.9067 41.0822 26.7785 41.3587C26.2636 42.3359 25.7616 42.4891 25.4543 41.2655C25.327 40.7595 25.4275 40.1959 25.4243 39.659L25.4235 39.6582Z" fill="#9298A3"/>
<path d="M32.2861 39.1839L30.339 39.1474C30.1671 38.9933 30.052 38.8052 30.0001 38.5798C29.9676 38.0908 30.1306 37.7007 30.5734 37.4534C30.9521 37.2231 31.4476 37.5556 31.8027 37.2012C31.9893 37.3999 32.1758 37.5994 32.3623 37.798C31.8563 38.2335 32.119 38.7111 32.2861 39.1831V39.1839Z" fill="#2B292B"/>
<path d="M45.1338 26.9059C45.3049 26.7153 45.476 26.5248 45.6471 26.3342C46.4621 26.811 47.277 27.2886 48.092 27.7655C48.0466 27.8603 48.002 27.9552 47.9574 28.0517C47.6306 28.3509 47.2414 28.501 46.8018 28.531C45.8417 28.4045 45.2019 27.9479 45.1346 26.9051L45.1338 26.9059Z" fill="#5F646E"/>
<path d="M44.7312 33.1921C44.5511 33.2132 44.3711 33.2343 44.1911 33.2553C43.6883 33.0696 43.1864 32.8839 42.6836 32.6974C42.6966 32.0957 42.7087 31.4932 42.7217 30.8915C43.5383 30.5607 43.9048 31.1867 44.3492 31.653C44.6306 32.1274 44.8909 32.6082 44.732 33.1929L44.7312 33.1921Z" fill="#4F5762"/>
<path d="M53.9638 35.7506C53.3832 35.3127 52.7523 35.0622 52.0103 35.2349C51.6487 35.4838 51.3673 35.2836 51.0867 35.0703C50.9375 34.8773 50.875 34.6616 50.9115 34.4191C51.0948 34.0793 51.3957 33.9123 51.7598 33.8336C52.2723 33.7444 52.6988 33.9196 53.0702 34.2626C53.7943 34.5035 54.0133 35.0468 53.963 35.7506H53.9638Z" fill="#B3C5D3"/>
<path d="M26.7784 41.3593C26.6762 41.1168 26.5748 40.8743 26.4727 40.631C27.312 40.0894 28.0799 40.5702 28.8665 40.7949C29.3271 41.2522 30.3659 41.0479 30.3383 42.0688C29.0952 42.1142 27.8593 42.1256 26.7776 41.3593H26.7784Z" fill="#808999"/>
<path d="M50.0647 32.7639C50.0623 32.399 50.0591 32.0349 50.0566 31.67C50.7508 31.7965 51.5033 31.7081 52.0888 32.2287C51.9672 32.8125 52.0864 33.4783 51.5122 33.9073C50.5091 34.1846 50.1118 33.6956 50.0647 32.7639Z" fill="#41454B"/>
<path d="M34.2916 34.2312C32.9512 34.6472 31.6164 34.8426 30.3027 34.1347C31.597 33.6684 32.9512 33.8922 34.277 33.7852C34.3646 33.9312 34.3695 34.0795 34.2916 34.2312Z" fill="#CAD1D9"/>
<path d="M51.4677 33.8246C51.5682 33.2513 51.5398 32.6277 52.0896 32.2287C52.7611 32.7412 53.0076 33.4581 53.0709 34.2633C52.5575 34.2593 52.045 34.2552 51.5317 34.2512C51.3558 34.1806 51.2877 34.0938 51.3274 33.9908C51.3696 33.8798 51.4166 33.8246 51.4677 33.8246Z" fill="#121216"/>
<path d="M27.3717 34.7547C27.6994 35.0799 28.0278 35.4059 28.3554 35.7311C28.3951 35.8316 28.4357 35.9322 28.4754 36.0336C28.3051 36.8023 27.7683 37.0829 27.0417 37.1121C26.8276 37.0805 26.6216 37.0164 26.4254 36.9239C26.1181 36.7828 25.9056 36.5582 25.8164 36.2257C25.8602 36.0611 25.9048 35.8957 25.9486 35.7311C26.3013 35.2291 27.0166 35.2535 27.3717 34.7539V34.7547Z" fill="#504B50"/>
<path d="M39.2222 31.3614C38.8898 31.6703 38.5565 31.9801 38.224 32.289C37.8996 32.2744 37.5753 32.2599 37.2509 32.2461C36.6914 31.5179 37.1187 31.0386 37.6677 30.5886C38.1859 30.351 38.6935 30.3493 39.1849 30.6615C39.3909 30.8837 39.4031 31.1173 39.2222 31.3614Z" fill="#292E34"/>
<path d="M37.7685 30.7989C37.5252 31.2562 37.1352 31.6609 37.252 32.2456C37.08 32.295 36.9081 32.3445 36.7362 32.394C36.5627 32.0542 36.3891 31.7136 36.2164 31.3738C36.1021 31.2425 36.0469 31.1006 36.051 30.9481C36.055 30.7908 36.0713 30.7121 36.0996 30.7113C36.4865 30.151 36.9787 29.8931 37.6566 30.1664C37.7904 30.2872 37.8512 30.421 37.8399 30.5678C37.8277 30.721 37.8042 30.7981 37.7685 30.7981V30.7989Z" fill="#707D8A"/>
<path d="M34.6407 27.9619C34.1388 27.5208 34.3018 26.9199 34.2588 26.3693C34.6107 26.2403 34.9619 26.1114 35.3138 25.9825C35.7866 26.2038 36.042 26.5379 35.8887 27.0861C35.6244 27.5921 35.4362 28.2117 34.6407 27.9619Z" fill="#91A0AE"/>
<path d="M35.7115 26.8985C35.5785 26.5928 35.4455 26.2871 35.3125 25.9814C36.1145 25.7916 36.9165 25.6019 37.7177 25.4121C38.0023 25.687 38.0226 26.009 37.8863 26.3593C37.4922 26.8458 36.9311 26.9813 36.3561 27.0899C36.1202 27.0997 35.9053 27.034 35.7115 26.8985Z" fill="#6A7483"/>
<path d="M50.1533 31.4115C49.9474 31.2079 49.7414 31.0036 49.5354 30.8C49.3911 30.2137 48.8032 29.4799 50.0204 29.3477C50.2085 30.0264 50.9237 30.6719 50.1533 31.4123V31.4115Z" fill="#464D58"/>
<path d="M37.7209 26.3908C37.7209 26.0648 37.7193 25.7388 37.7193 25.412C38.0453 25.4023 38.3704 25.3926 38.6964 25.3828C38.7232 25.7153 38.7491 26.047 38.7759 26.3795C38.9024 26.583 38.9073 26.7898 38.7913 26.9998C38.4767 27.3647 38.1345 27.621 37.6471 27.2796C37.4557 26.9657 37.4225 26.6649 37.7209 26.3908Z" fill="#768090"/>
<path d="M30.4007 28.7665C30.7258 29.1006 31.051 29.4338 31.377 29.7671C30.6967 29.7874 30.0163 29.8085 29.3359 29.8288C29.576 29.3592 29.7365 28.8103 30.4015 28.7657L30.4007 28.7665Z" fill="#CAD1D9"/>
<path d="M27.3713 34.7552C27.3445 35.7315 26.6593 35.7502 25.9481 35.7324C25.8825 35.3261 25.8241 34.9231 26.2976 34.6992C26.6553 34.7179 27.0137 34.7374 27.3713 34.756V34.7552Z" fill="#42393B"/>
<path d="M40.7662 26.9941C40.574 26.4427 40.3826 25.8913 40.1904 25.3399C40.6632 25.3739 41.1368 25.408 41.6095 25.442C41.3281 25.9594 41.0476 26.4768 40.7662 26.9941Z" fill="#292A2F"/>
<path d="M50.0209 29.3477C49.3438 29.6607 49.6706 30.307 49.5368 30.8009C48.8151 30.1959 49.124 29.4118 49.1654 28.6739C49.5327 28.7947 49.9439 28.8604 50.0217 29.3485L50.0209 29.3477Z" fill="#8E9CAC"/>
<path d="M48.6672 28.2441C48.6137 28.935 48.5602 29.6267 48.5075 30.3176C47.1452 29.8221 47.4809 28.9747 48.0428 28.0803C48.1077 27.983 48.1239 27.8776 48.0931 27.7657C48.2845 27.9254 48.4767 28.0843 48.6681 28.2441H48.6672Z" fill="#363A40"/>
<path d="M30.3389 42.0692C29.8548 41.7676 29.3699 41.4659 28.8857 41.1635C29.3609 40.7507 29.8605 40.8821 30.3632 41.1002C30.7654 41.311 30.7841 41.6841 30.7736 42.0692L30.5562 42.1049L30.3389 42.0701V42.0692Z" fill="#545663"/>
<path d="M25.8163 36.2274C26.0052 36.3945 26.1942 36.5615 26.3831 36.7285C26.5153 36.8234 26.5591 36.9175 26.5137 37.0107C26.4683 37.1032 26.4237 37.1494 26.3782 37.1494C26.0677 37.3408 25.7579 37.533 25.4473 37.7244C25.3484 37.1705 25.2989 36.6288 25.8163 36.2266V36.2274Z" fill="#868892"/>
<path d="M38.619 26.8731C38.6709 26.7093 38.7228 26.5447 38.7747 26.3809C39.1574 27.1772 39.5718 27.9143 40.6576 27.3621C41.2666 28.1714 41.3266 28.9628 40.5798 29.7275C40.4614 30.3625 40.2822 30.9593 39.614 31.2448C39.4786 31.2683 39.348 31.3072 39.2223 31.3615C39.2126 31.1758 39.2029 30.9901 39.1931 30.8044C38.5168 30.1557 38.5809 29.1583 38.0716 28.4293C37.8924 27.7838 38.4617 27.401 38.6182 26.8731H38.619Z" fill="#2D3339"/>
<path d="M44.7314 33.1936C44.3462 32.8181 44.1297 32.3721 44.1548 31.8239C43.9813 31.0974 44.2221 30.4494 44.5343 29.8145C44.703 29.3182 44.8725 28.8211 45.0412 28.3248C45.7588 27.874 46.1635 28.2121 46.44 28.8763C46.5308 29.3417 46.427 29.7918 46.3184 30.2378C46.2851 30.4462 46.2405 30.6562 46.2016 30.8646C46.14 31.2652 46.0832 31.6699 45.9275 32.0486C45.4491 32.2894 45.8115 32.8514 45.5091 33.1611C45.2496 33.1717 44.9901 33.183 44.7314 33.1936Z" fill="#1F2125"/>
<path d="M44.5341 29.8145C44.5195 30.5054 44.7684 31.2457 44.1546 31.8239C43.6769 31.5134 43.1993 31.2028 42.7217 30.8922C42.8182 29.6799 44.0191 30.3229 44.5341 29.8145Z" fill="#667180"/>
<path d="M46.0976 29.3366C46.066 28.6652 45.6873 28.3562 45.041 28.3246C44.8456 27.8364 44.4766 27.3377 45.1335 26.9063C45.7238 27.4682 46.2541 28.1105 47.0821 28.3513C47.1461 28.4559 47.2102 28.5614 47.2743 28.666C47.2151 29.4744 46.8931 29.8207 46.0976 29.3366Z" fill="#363A40"/>
<path d="M39.6149 31.2438C39.5816 30.5124 40.0787 30.1183 40.5807 29.7266C40.751 30.3032 41.4719 30.8416 40.905 31.4701C40.4931 31.9274 40.0438 31.3687 39.6149 31.2438Z" fill="#6D798A"/>
<path d="M28.3553 35.732C28.2791 35.02 28.5369 34.3932 28.8483 33.7793C29.3446 33.9464 29.8409 34.1126 30.3372 34.2797C30.4101 35.3476 29.1711 35.0922 28.8443 35.7572C28.6894 35.9501 28.5304 35.9445 28.3683 35.7677L28.3553 35.7328V35.732Z" fill="#4F5059"/>
<path d="M31.3681 29.7598C32.6712 29.8563 32.0744 31.2916 32.8018 31.7928C31.0526 32.0109 31.3178 30.8091 31.3681 29.7598Z" fill="#CAD1D9"/>
<path d="M30.7591 37.6665C30.3431 37.9081 30.2791 38.3249 30.2223 38.745C29.7771 39.1107 29.3076 39.1269 28.8162 38.8415C28.4302 38.4247 28.3832 37.9389 28.5299 37.4151C28.6913 37.038 28.9654 36.802 29.3781 36.7412C29.6847 36.7396 29.9912 36.738 30.2969 36.7364C30.747 36.8994 31.0721 37.124 30.7583 37.6657L30.7591 37.6665Z" fill="#595E6B"/>
<path d="M29.3787 36.7415C29.2011 36.9029 29.0235 37.0642 28.8451 37.2256C28.0488 37.5589 27.2468 37.9149 26.8105 36.7391C27.5306 36.7358 28.0602 36.4269 28.3675 35.7651C28.5264 35.7497 28.6846 35.7457 28.8435 35.7546C29.0219 36.0838 29.1995 36.4123 29.3779 36.7407L29.3787 36.7415Z" fill="#453D42"/>
<path d="M30.7593 37.6666C30.606 37.3569 30.4519 37.0471 30.2979 36.7373C31.1688 35.6961 31.2831 37.1039 31.8021 37.2012C31.5848 37.6472 31.1915 37.7015 30.7585 37.6666H30.7593Z" fill="#3E393E"/>
<path d="M30.3624 41.0993C29.8702 41.1204 29.3771 41.1415 28.8849 41.1626C28.0805 40.9858 27.2752 40.8082 26.4716 40.6314C26.4668 40.4417 26.4619 40.2527 26.457 40.0622C26.9006 39.9146 27.345 39.7678 27.7886 39.6202C27.9426 39.4726 28.1243 39.4313 28.3294 39.4808C28.6254 39.6186 28.6887 39.9462 28.8898 40.1619C29.3804 40.4741 29.8718 40.7863 30.3624 41.0985V41.0993Z" fill="#777F8D"/>
<path d="M28.8897 40.1636C28.7097 39.9949 28.5297 39.8263 28.3496 39.6584C28.0796 39.1183 28.4169 38.9107 28.8459 38.7534C29.3057 38.751 29.7647 38.7486 30.2245 38.7461C30.291 38.8718 30.3299 39.0056 30.3404 39.1475C29.8571 39.4865 29.3738 39.8246 28.8905 40.1636H28.8897Z" fill="#77808E"/>
<path d="M49.0443 37.201C48.5853 36.532 47.8839 36.7728 47.2603 36.7266C46.8808 35.8322 48.2017 35.6027 48.0209 34.7861C48.8521 35.1429 48.9072 34.0108 49.5446 33.9914C50.1917 33.9516 50.6313 34.3028 51.0148 34.7626L50.9694 34.8639C51.3019 35.1372 51.3311 35.4267 51.0156 35.7348L51.0318 35.7235C50.6969 35.9903 50.5542 36.3893 50.3361 36.7371C50.1317 36.9893 49.8836 37.1677 49.5519 37.2067C49.3824 37.205 49.2138 37.2034 49.0443 37.2018V37.201Z" fill="#37393E"/>
<path d="M49.5516 37.2057C49.7073 37.0459 49.863 36.887 50.0179 36.7272C50.5847 36.368 50.7331 36.8894 50.9869 37.1878C51.3283 37.1968 51.6705 37.2057 52.0119 37.2138C51.1896 37.8747 50.369 37.9663 49.5508 37.2057H49.5516Z" fill="#373337"/>
<path d="M33.7952 28.331C34.1131 28.3116 34.4318 28.2929 34.7496 28.2735C35.104 28.3521 35.3408 28.5727 35.5006 28.8898C35.6125 29.2271 35.5995 29.5596 35.4657 29.8888C35.2897 30.197 35.0416 30.4256 34.7115 30.5611C34.3572 30.643 34.0344 30.5951 33.7693 30.3235C33.6468 29.6577 33.2941 28.9887 33.7952 28.3319V28.331Z" fill="#707D8B"/>
<path d="M33.7682 30.3243C34.1137 30.2959 34.4591 30.2667 34.8046 30.2383C35.2206 30.7614 35.1419 31.2568 34.721 31.7336C34.2361 31.9802 33.7496 32.0191 33.2598 31.745C33.3263 31.2349 33.2038 30.6567 33.7674 30.3243H33.7682Z" fill="#464D55"/>
<path d="M34.7217 31.7342C34.7493 31.2363 34.776 30.7384 34.8044 30.2396C34.9609 30.1026 35.1174 29.9664 35.2731 29.8301C35.6721 29.728 36.084 29.496 36.4319 29.9396C36.5357 30.2664 36.4984 30.564 36.243 30.8138C36.234 31.0011 36.2251 31.1876 36.2162 31.3757C35.7183 31.4958 35.2196 31.615 34.7217 31.735V31.7342Z" fill="#737D8D"/>
<path d="M28.8447 38.7534C28.6793 39.0551 28.5138 39.3567 28.3492 39.6584C28.1627 39.6462 27.9762 39.6341 27.7889 39.6219C28.3654 38.2012 27.1207 37.8192 26.3779 37.1502C26.3698 37.0091 26.3722 36.8688 26.3827 36.7285C26.5255 36.7415 26.669 36.7448 26.8117 36.7399C27.3607 37.4389 28.1489 37.1405 28.8455 37.2264C28.8455 37.7357 28.8455 38.2441 28.8455 38.7534H28.8447Z" fill="#6D717D"/>
<path d="M49.7289 34.2382C49.1385 34.3541 48.8369 35.3694 48.0211 34.7872C47.4235 34.6631 46.928 34.4052 46.7058 33.7873C46.7918 33.2294 46.8047 32.6699 46.7447 32.1136C46.3798 31.6846 45.9241 31.3391 45.6289 30.8542C45.6313 30.6637 45.6338 30.4723 45.6362 30.2817C46.3563 29.8122 47.8719 29.95 47.1113 28.3509H47.0829C47.3026 27.9074 47.6432 27.8887 48.0422 28.0809C48.1395 28.8391 47.7892 29.6897 48.5077 30.319C48.9772 31.2597 47.3651 32.5709 49.038 33.2975C49.5237 33.4232 49.7613 33.7313 49.7289 34.2374V34.2382Z" fill="#212428"/>
<path d="M47.5583 31.8103C47.5672 32.596 47.1553 33.1994 46.7044 33.7865C46.3062 33.5781 45.9081 33.3697 45.5091 33.1612C45.5132 32.8661 45.0582 32.5263 45.5951 32.2838C46.1854 31.8597 46.7352 31.2702 47.5583 31.8103Z" fill="#383D45"/>
<path d="M49.728 34.2383C49.4977 33.9253 49.2674 33.6114 49.0371 33.2984C49.2634 32.8978 49.6599 32.8249 50.0645 32.7657C50.5787 33.0576 50.7344 33.8231 51.4674 33.8255C51.5072 33.965 51.5282 34.1077 51.5315 34.2521C51.3588 34.4224 51.186 34.5935 51.0133 34.7638C50.4546 34.9065 50.0864 34.5837 49.728 34.2383Z" fill="#8E9CAC"/>
<path d="M51.015 35.7342C50.9996 35.4439 50.9842 35.1536 50.9688 34.8633C51.3158 34.9874 51.6637 35.1115 52.0108 35.2347C52.0327 35.5096 52.0538 35.7837 52.0756 36.0586C51.7221 35.9499 51.3685 35.8421 51.015 35.7334V35.7342Z" fill="#545A64"/>
<path d="M50.9866 37.1882C50.6639 37.0349 50.3411 36.8808 50.0176 36.7276C50.0208 36.0561 50.3509 35.7139 51.0304 35.7229C51.0158 36.211 51.0012 36.7 50.9866 37.1882Z" fill="#60646E"/>
<path d="M35.2174 28.8805C35.0617 28.6786 34.9052 28.4775 34.7495 28.2747C34.717 28.1685 34.6813 28.0631 34.6416 27.9609C34.9976 27.6074 35.3552 27.253 35.7128 26.8994C35.8872 26.8848 36.0623 26.8694 36.2375 26.8548C36.9584 26.6237 36.9543 27.1541 37.0281 27.6049C36.9924 27.9601 36.8578 28.2788 36.6729 28.5804C36.5424 28.7751 36.3753 28.9316 36.1759 29.0548C35.8255 29.1732 35.5028 29.1286 35.2174 28.8813V28.8805Z" fill="#9AA6B5"/>
<path d="M38.3012 28.385C39.7949 28.7499 38.9742 29.9687 39.194 30.8032C38.7188 30.8015 38.2436 30.7999 37.7684 30.7983C37.7068 30.6458 37.6727 30.4869 37.6654 30.3223C37.6622 30.0571 37.6792 29.7928 37.7214 29.53C37.7506 29.2584 37.8033 28.9924 37.9022 28.7361C37.9865 28.5634 38.1228 28.4491 38.3012 28.385Z" fill="#17181B"/>
<path d="M38.1748 29.837C38.0053 29.9992 37.8359 30.1614 37.6656 30.3227C37.1912 30.4857 36.7168 30.6487 36.2424 30.8125C36.2165 30.4768 36.1913 30.1411 36.1654 29.8062C35.9213 29.4721 35.9537 29.1485 36.2011 28.8323C36.2554 28.6806 36.313 28.5306 36.3738 28.3814C37.4158 28.3214 37.5618 29.3667 38.174 29.8378L38.1748 29.837Z" fill="#4D5761"/>
<path d="M36.6994 27.7736C36.7067 27.386 36.6312 27.0397 36.2363 26.854C36.6004 26.2815 37.1778 26.3918 37.7203 26.391C37.7154 26.7024 37.7114 27.0137 37.7065 27.3251C37.6643 27.433 37.623 27.5408 37.5816 27.6495C37.3165 27.896 37.044 28.0939 36.6994 27.7728V27.7736Z" fill="#7E8A9A"/>
<path d="M38.3012 28.3843C38.2696 28.5311 38.2339 28.6762 38.1942 28.8214C37.0881 28.6689 37.3865 28.0405 37.7125 27.4023C37.7125 27.4023 37.7068 27.326 37.7068 27.3252C38.0109 27.1736 38.315 27.0228 38.6191 26.8711C38.5129 27.3755 38.4066 27.8799 38.3004 28.3835L38.3012 28.3843Z" fill="#667181"/>
<path d="M47.1108 28.3496C48.2218 30.2164 47.5122 30.6948 45.6357 30.2812C45.7898 29.9658 45.9439 29.6512 46.098 29.3357C46.7443 29.3244 47.0613 28.9732 47.1108 28.3496Z" fill="#323941"/>
<path d="M47.5589 31.8112C46.9045 31.9694 46.2501 32.1267 45.5957 32.2848C45.6062 31.808 45.6176 31.3304 45.6289 30.8535C46.2217 31.2744 47.0967 31.1284 47.5589 31.8112Z" fill="#2F3339"/>
<path d="M36.2012 28.8301C36.1899 29.1545 36.1777 29.4797 36.1656 29.804C35.8688 29.8827 35.5841 30.3846 35.2719 29.8275C35.2541 29.5113 35.2354 29.195 35.2168 28.8788C35.5444 28.8625 35.8728 28.8463 36.2004 28.8301H36.2012Z" fill="#8A96A5"/>
<path d="M37.7128 27.4024C37.7712 27.91 37.5953 28.4971 38.1945 28.8215C38.188 29.1596 38.1816 29.4978 38.1751 29.8359C37.1476 29.8773 36.8946 28.9626 36.374 28.3795C36.4827 28.1776 36.5913 27.9757 36.6992 27.7738C37.0374 27.6497 37.3747 27.5264 37.7128 27.4024Z" fill="#444B55"/>
</g>
<path d="M39.7318 46.9423C43.9976 46.9423 47.4557 43.4842 47.4557 39.2183C47.4557 34.9525 43.9976 31.4944 39.7318 31.4944C35.4659 31.4944 32.0078 34.9525 32.0078 39.2183C32.0078 43.4842 35.4659 46.9423 39.7318 46.9423Z" fill="white"/>
<path d="M22.7895 46.9702C22.4117 46.4415 22.0346 45.9119 21.4629 45.1116H25.2199C25.6245 45.3792 26.1719 45.3078 26.5425 45.6614C26.9439 45.959 27.4742 46.1009 27.6988 46.6142C27.6972 46.8388 27.6104 47.0229 27.4401 47.1697C26.9479 47.46 26.4184 47.4843 25.8735 47.3935C25.2604 47.3002 24.829 46.7812 24.2159 46.6872C23.7164 46.6629 23.2729 46.9191 22.7904 46.9702H22.7895Z" fill="#858994"/>
<path d="M35.6806 48.7385C36.7372 49.9744 38.917 50.3587 38.4669 52.7501C38.282 53.7313 38.0355 54.153 37.0462 53.9649C36.8986 53.7986 36.8361 53.6032 36.8426 53.3834C36.8783 52.5085 37.2035 51.5524 36.1598 50.9839C35.7747 50.709 35.4187 50.3904 34.9865 50.1803C34.8162 50.0846 34.6759 49.9557 34.5583 49.8008C34.4788 49.1707 34.9127 48.951 35.387 48.7645C35.4844 48.7547 35.5825 48.7466 35.6806 48.7385Z" fill="#41434A"/>
<path d="M25.6753 46.961C26.2981 46.9464 26.9209 46.9319 27.5437 46.9173C27.9346 47.2854 27.9589 47.7265 27.8008 48.2026C27.5802 49.1083 25.9916 48.1174 26.0711 49.4457C24.9569 48.9567 23.9092 48.3874 23.3594 47.2132C23.3472 46.9886 23.4486 46.8443 23.6643 46.7786C24.3552 46.6018 24.9658 47.3243 25.6753 46.9602V46.961Z" fill="#4C535D"/>
<path d="M32.6449 51.263C31.8818 50.474 31.4374 49.3801 30.3646 48.8871C30.2235 48.4232 30.5016 48.1913 30.8544 47.9991C31.6012 47.738 32.3367 47.738 33.0536 48.1037C33.5791 48.5205 33.2725 49.2325 33.6253 49.7166C33.6164 50.4343 33.9051 51.3433 32.6441 51.263H32.6449Z" fill="#2E3238"/>
<path d="M26.0712 49.4456C25.8904 49.0466 25.7087 48.6485 25.459 48.0979C26.2107 48.1863 26.8854 48.2657 27.5593 48.3444C27.8269 48.0906 28.1334 48.0646 28.4667 48.1887C28.8802 48.4571 28.9873 48.8755 29.0254 49.3272C28.088 50.5444 27.0946 50.3782 26.0712 49.4456Z" fill="#33383F"/>
<path d="M33.2403 48.4227C32.4497 48.3975 31.6598 48.3716 30.8692 48.3464C30.5124 48.0642 30.2221 47.7407 30.1953 47.2541C30.2269 47.0247 30.3332 46.8365 30.5108 46.6873C31.4676 46.1886 32.4091 46.0102 33.2906 46.8284C33.6725 46.8787 32.6921 47.7091 33.666 47.4707C34.2029 47.3393 34.7008 47.5753 35.1541 47.8704C35.3292 48.1599 35.5044 48.4486 35.6795 48.7381C35.6333 48.8362 35.5684 48.9206 35.4849 48.9911C34.7267 48.8395 33.8671 49.0901 33.2395 48.4227H33.2403Z" fill="#4F5861"/>
<path d="M32.6446 51.2637C33.4579 50.8031 33.1765 50.0068 33.2414 49.3175C33.6842 48.9331 34.0296 49.0953 34.3321 49.5089C34.594 50.5233 35.5631 51.4161 34.8762 52.6001C34.6038 52.9796 34.2186 53.1847 33.7782 53.3015C33.5569 53.3242 33.3493 53.2764 33.1547 53.1701C32.8335 52.7314 33.2366 52.0868 32.7378 51.6967C32.6219 51.571 32.5911 51.4267 32.6446 51.2645V51.2637Z" fill="#38404B"/>
<path d="M33.3183 46.9692C32.3582 46.6051 31.3908 46.9027 30.4258 46.9368C29.7211 47.2725 29.2394 46.9587 28.8421 46.3943C28.8121 46.1153 28.9134 45.898 29.1453 45.7399C29.3837 45.6231 29.6335 45.5591 29.8979 45.5461C31.197 45.6434 32.556 45.1836 33.7773 45.9759C33.8446 46.0845 33.8811 46.2021 33.8859 46.3302C33.9727 46.7876 33.7384 46.9611 33.3183 46.97V46.9692Z" fill="#4E5762"/>
<path d="M33.7772 45.9757C32.3444 45.9757 30.9115 45.9757 29.4786 45.9757C29.1453 45.4632 29.5848 45.3326 29.893 45.1372C31.1474 45.6011 32.8325 44.0749 33.7772 45.9749V45.9757Z" fill="#66717F"/>
<path d="M29.8932 45.1387C29.7545 45.4184 29.6159 45.6974 29.478 45.9772C29.3142 45.9869 29.1504 45.9966 28.9866 46.0063C28.7912 46.171 28.5706 46.2902 28.3257 46.3648C27.5951 46.2391 26.8247 46.355 26.1305 46.0088C25.8273 45.7104 25.524 45.4119 25.2207 45.1135C26.7785 45.1224 28.3362 45.1306 29.894 45.1395L29.8932 45.1387Z" fill="#595D65"/>
<path d="M36.9761 53.6105C37.0037 53.7273 37.0272 53.8448 37.0458 53.9632C36.1603 54.0995 37.1723 55.9775 35.6267 55.5072C34.9748 54.8447 34.8402 54.0103 34.8369 53.132C34.9423 52.7533 35.1426 52.4582 35.5375 52.3325C36.4912 52.2246 36.9542 52.6698 36.9753 53.6105H36.9761Z" fill="#636F80"/>
<path d="M30.3487 47.3964C30.7428 47.5926 30.8539 47.9421 30.8693 48.3459C30.7015 48.5268 30.5328 48.7068 30.3649 48.8876C29.8119 48.7076 29.4843 49.2152 29.0261 49.3263C28.6182 49.156 28.5047 48.8033 28.4593 48.4092C28.4415 47.9064 28.6085 47.4929 29.0359 47.2017C29.5127 46.9974 29.9457 47.0955 30.3487 47.3964Z" fill="#4C535D"/>
<path d="M35.1289 53.1061C35.5717 53.8497 35.6803 54.6622 35.626 55.5088C35.1484 55.474 34.6699 55.4391 34.1923 55.4042C33.7658 54.9809 33.9482 54.4563 33.9466 53.9608C34.0082 53.5286 34.2045 53.1831 34.601 52.9715C34.8102 52.8839 34.9862 52.9293 35.1289 53.1061Z" fill="#3D4653"/>
<path d="M33.3182 46.9701C33.5071 46.7569 33.6969 46.5436 33.8858 46.3303C34.8257 46.4187 34.8711 47.2426 35.1541 47.8711C34.5272 47.8711 33.8769 47.9805 33.2792 47.85C31.9145 47.5532 33.4301 47.2775 33.3182 46.9709V46.9701Z" fill="#8996A8"/>
<path d="M34.1691 54.0302C34.7181 54.4786 34.0378 54.9489 34.1926 55.4039C33.5982 55.2952 33.1644 54.9368 32.7816 54.4981C32.5262 53.8518 32.7719 53.3968 33.3323 53.0627C33.4539 53.0814 33.5755 53.0976 33.6972 53.1114C34.0888 53.2971 33.9202 53.7707 34.1691 54.0302Z" fill="#4C5967"/>
<path d="M33.3322 53.0639C33.1489 53.5423 32.9657 54.0208 32.7816 54.4992C30.6165 53.5991 33.453 52.6203 32.7378 51.6975C33.3168 51.9878 33.2633 52.5522 33.3314 53.0639H33.3322Z" fill="#70829A"/>
<path d="M23.5456 46.9435C23.4662 47.0222 23.4045 47.1114 23.3599 47.2127C23.0745 47.3555 22.9083 47.2184 22.7891 46.9695C23.0753 46.3743 23.5254 46.0191 24.2074 46.0061C24.4595 46.6524 24.5585 47.19 23.5448 46.9435H23.5456Z" fill="#4E5866"/>
<path d="M28.9726 47.413C28.9629 47.8282 28.8656 48.198 28.4593 48.4097C28.1593 48.3886 27.8592 48.3667 27.5592 48.3448C27.5535 47.8688 27.5486 47.3928 27.543 46.9176C27.5624 46.7927 27.5803 46.6678 27.5965 46.5429C27.6743 46.1034 28.2014 46.3613 28.362 46.0499C28.5696 46.0353 28.778 46.0207 28.9864 46.0061C28.9807 46.1399 28.9718 46.2745 28.9613 46.4083C29.2556 46.74 29.2548 47.0757 28.9734 47.4139L28.9726 47.413Z" fill="#565F6B"/>
<path d="M23.5449 46.9443C24.0396 46.8251 24.2277 46.4894 24.2074 46.0069C24.9738 45.8982 25.1749 46.6588 25.6752 46.9605C24.9608 47.6003 24.2504 47.5979 23.5457 46.9443H23.5449Z" fill="#768292"/>
<path d="M28.3625 46.0502C28.2619 46.4549 27.9011 46.4541 27.597 46.5425C27.0926 46.407 26.4552 46.6349 26.1309 46.0081C26.8745 46.0218 27.6189 46.0356 28.3625 46.0502Z" fill="#AFBAC6"/>
<path d="M36.9755 53.6113C36.476 53.3453 36.3795 52.5506 35.6423 52.5976C35.3301 52.3844 35.2928 52.0762 35.3423 51.7364C35.4745 51.3034 35.6861 50.9312 36.1248 50.7366C37.7337 50.8988 37.904 51.4761 36.9755 53.6121V53.6113Z" fill="#393F49"/>
<path d="M35.6351 51.7126C35.6375 52.0077 35.6399 52.3029 35.6424 52.5973C35.4713 52.7659 35.3001 52.9354 35.129 53.1049C34.9782 53.1098 34.8274 53.1033 34.6774 53.087C34.563 53.0141 34.5111 52.9273 34.5225 52.8267C34.5346 52.7197 34.5557 52.6662 34.5865 52.6662C35.1428 51.6047 33.9402 50.7784 34.1965 49.7566C34.3433 49.5831 34.4917 49.5815 34.6425 49.7518C34.816 49.7818 34.9896 49.8126 35.1631 49.8426C35.704 50.3689 35.5677 51.0663 35.6342 51.7126H35.6351Z" fill="#596373"/>
<path d="M34.643 49.7534L34.42 49.7704L34.197 49.7583C33.9773 49.3974 33.6269 49.3196 33.2418 49.3179C32.7195 49.0195 33.1712 48.7203 33.2418 48.4227C34.0673 48.3092 34.862 48.3148 35.4872 48.9911C35.2058 49.2458 34.9244 49.4996 34.6438 49.7534H34.643Z" fill="#23262C"/>
<path d="M35.6357 51.7129C34.9464 51.2231 35.1629 50.5055 35.1637 49.843C35.7979 49.804 36.0492 50.1754 36.1246 50.7366C36.0638 51.1137 36.0257 51.5013 35.6349 51.7138L35.6357 51.7129Z" fill="#6A7788"/>
<path d="M34.5868 52.666C34.6274 52.8039 34.6574 52.9442 34.6769 53.0869C34.5082 53.4007 34.3387 53.7154 34.1692 54.0292C34.0119 53.7227 33.8546 53.4161 33.6973 53.1104C33.8862 52.7471 34.2033 52.6401 34.5868 52.666Z" fill="#262B31"/>
<path d="M66.5542 40.1624H39.3496V68.0603H66.5542V40.1624Z" fill="#213B78"/>
<path d="M42.0068 48.9697V44.6897H42.5785V48.9697H42.0068Z" fill="white"/>
<path d="M45.3172 49.0557C44.9118 49.0557 44.5542 48.9649 44.2444 48.7816C43.9346 48.5991 43.693 48.3413 43.5202 48.008C43.3467 47.6747 43.2607 47.2822 43.2607 46.8297C43.2607 46.3772 43.3499 45.9848 43.5283 45.6515C43.7067 45.3182 43.9508 45.0603 44.2606 44.8778C44.5704 44.6954 44.9231 44.6038 45.318 44.6038C45.5216 44.6038 45.7113 44.624 45.8865 44.6646C46.0616 44.7051 46.2173 44.757 46.3544 44.8203L46.2936 45.3522C46.159 45.2849 46.0154 45.2298 45.8622 45.1868C45.7097 45.1438 45.5451 45.1227 45.3699 45.1227C45.048 45.1227 44.7772 45.199 44.5566 45.3506C44.3368 45.5023 44.1706 45.7074 44.0587 45.9653C43.9468 46.2232 43.8908 46.511 43.8908 46.8289C43.8908 47.1468 43.9468 47.4314 44.0587 47.6893C44.1706 47.9472 44.336 48.1523 44.5558 48.3056C44.7755 48.4589 45.0456 48.5351 45.3675 48.5351C45.5451 48.5351 45.7097 48.5156 45.8613 48.4759C46.013 48.4361 46.1573 48.3826 46.2936 48.3153L46.3544 48.8473C46.2198 48.9065 46.0673 48.9559 45.897 48.9957C45.7267 49.0354 45.5337 49.0557 45.318 49.0557H45.3172Z" fill="white"/>
<path d="M46.9795 48.9697V44.6897H49.4309V45.2095H47.5512V46.4721H49.04V46.9919H47.5512V48.4499H49.4836V48.9697H46.9803H46.9795Z" fill="white"/>
<path d="M50.1348 48.9697V44.6897H50.7065V48.4499H52.501V48.9697H50.1348Z" fill="white"/>
<path d="M54.2136 45.2557H54.3912L53.187 48.9697H52.582L54.0068 44.6897H54.5996L56.0244 48.9697H55.4194L54.2152 45.2557H54.2136ZM55.1429 47.8142H53.4619V47.2887H55.1429V47.8142Z" fill="white"/>
<path d="M56.5145 48.9697V44.6897H57.147L59.0421 47.8506V44.6897H59.617V48.9697H59.1094L57.0854 45.6312V48.9697H56.5137H56.5145Z" fill="white"/>
<path d="M60.5098 48.9697V44.6897H61.9864C62.3692 44.6897 62.7098 44.774 63.0074 44.9435C63.305 45.113 63.5385 45.3571 63.7072 45.6758C63.8767 45.9945 63.961 46.3796 63.961 46.8297C63.961 47.2798 63.8767 47.6649 63.7072 47.9836C63.5377 48.3023 63.305 48.5464 63.0074 48.7159C62.7098 48.8854 62.3692 48.9697 61.9864 48.9697H60.5098ZM61.0815 48.4499H61.9378C62.2435 48.4499 62.4997 48.3834 62.7065 48.2512C62.9133 48.1191 63.069 47.9309 63.1744 47.6885C63.279 47.446 63.3317 47.1597 63.3317 46.8297C63.3317 46.4997 63.279 46.2134 63.1744 45.9709C63.0698 45.7285 62.9133 45.5412 62.7065 45.4082C62.4997 45.276 62.2435 45.2095 61.9378 45.2095H61.0815V48.4499Z" fill="white"/>
<path d="M42.7923 55.7822V52.022H41.6367V51.5022H44.5195V52.022H43.364V55.7822H42.7923Z" fill="white"/>
<path d="M46.6898 55.8682C46.3111 55.8682 45.9737 55.7774 45.6778 55.5941C45.3826 55.4116 45.1499 55.1538 44.9804 54.8205C44.8109 54.4872 44.7266 54.0947 44.7266 53.6422C44.7266 53.1897 44.8109 52.7973 44.9804 52.464C45.1499 52.1307 45.3818 51.8728 45.6778 51.6903C45.9729 51.5079 46.3103 51.4163 46.6898 51.4163C47.0693 51.4163 47.4058 51.5071 47.7018 51.6903C47.997 51.8728 48.2289 52.1307 48.3976 52.464C48.5654 52.7973 48.6498 53.1897 48.6498 53.6422C48.6498 54.0947 48.5654 54.4872 48.3976 54.8205C48.2297 55.1538 47.9978 55.4116 47.7018 55.5941C47.4066 55.7766 47.0693 55.8682 46.6898 55.8682ZM46.6898 55.3054C46.989 55.3054 47.2388 55.2316 47.4391 55.084C47.6386 54.9364 47.7886 54.7361 47.8883 54.4848C47.9881 54.2334 48.0383 53.952 48.0383 53.6422C48.0383 53.3325 47.9881 53.0519 47.8883 52.8005C47.7886 52.5491 47.6377 52.3488 47.4375 52.2012C47.2363 52.0536 46.9874 51.9798 46.6898 51.9798C46.3922 51.9798 46.1432 52.0536 45.9421 52.2012C45.741 52.3488 45.591 52.5491 45.4896 52.8005C45.3883 53.0519 45.338 53.3333 45.338 53.6422C45.338 53.9512 45.3883 54.2326 45.4896 54.4848C45.591 54.737 45.741 54.9364 45.9421 55.084C46.1432 55.2316 46.3922 55.3054 46.6898 55.3054Z" fill="white"/>
<path d="M50.9115 55.8674C50.5344 55.8674 50.2238 55.7928 49.9805 55.6444C49.7372 55.496 49.5564 55.2835 49.4396 55.0086C49.3221 54.7337 49.2637 54.4061 49.2637 54.0274V51.5022H49.8354V53.8685C49.8354 54.0639 49.8483 54.2504 49.8751 54.428C49.9019 54.6056 49.9521 54.7629 50.0267 54.9C50.1013 55.0378 50.21 55.1465 50.3527 55.2268C50.4955 55.307 50.682 55.3476 50.9123 55.3476C51.1426 55.3476 51.3347 55.3079 51.4775 55.2268C51.6202 55.1465 51.728 55.037 51.8018 54.8983C51.8756 54.7597 51.9251 54.6015 51.9519 54.4248C51.9786 54.2472 51.9916 54.0623 51.9916 53.8685V51.5022H52.5633V54.0274C52.5633 54.4069 52.5049 54.7337 52.3873 55.0086C52.2697 55.2835 52.0897 55.496 51.8464 55.6444C51.6032 55.7928 51.2918 55.8674 50.9123 55.8674H50.9115Z" fill="white"/>
<path d="M53.4297 55.7822V51.5022H54.6736C54.9688 51.5022 55.2259 51.5493 55.444 51.6441C55.6621 51.739 55.83 51.8825 55.9484 52.0755C56.0668 52.2685 56.126 52.5118 56.126 52.8078C56.126 53.077 56.066 53.3106 55.946 53.5076C55.8259 53.7055 55.6524 53.8612 55.4262 53.9755L56.3311 55.7822H55.6467L54.8301 54.1101C54.8155 54.1101 54.7985 54.1109 54.7782 54.1134C54.758 54.1158 54.7377 54.1166 54.7174 54.1166H54.0176V55.7822H53.4305H53.4297ZM54.0168 53.5993H54.6469C54.9485 53.5993 55.1707 53.5303 55.3151 53.3917C55.4594 53.253 55.5308 53.0584 55.5308 52.8078C55.5308 52.5572 55.4586 52.3602 55.3151 52.2239C55.1715 52.0877 54.9485 52.0188 54.6469 52.0188H54.0168V53.5993Z" fill="white"/>
<path d="M56.9307 55.7822V51.5022H57.5024V55.7822H56.9307Z" fill="white"/>
<path d="M59.5375 55.8682C59.3802 55.8682 59.2213 55.856 59.0591 55.8317C58.8969 55.8074 58.7461 55.7749 58.6066 55.7352C58.4671 55.6955 58.3503 55.6541 58.2563 55.6111L58.3358 54.994C58.442 55.0508 58.5652 55.1067 58.7055 55.1619C58.8458 55.217 58.995 55.2616 59.1532 55.2965C59.3113 55.3314 59.4702 55.3484 59.6316 55.3484C59.8927 55.3484 60.0995 55.2981 60.2519 55.1967C60.4044 55.0954 60.4814 54.9413 60.4814 54.7337C60.4814 54.5788 60.4441 54.4507 60.3695 54.3485C60.2949 54.2464 60.183 54.1563 60.033 54.0777C59.883 53.999 59.6948 53.9187 59.4686 53.8377C59.2383 53.7517 59.0307 53.6584 58.845 53.5579C58.6593 53.4573 58.5125 53.3292 58.4031 53.1743C58.2944 53.0194 58.2393 52.8167 58.2393 52.5661C58.2393 52.3358 58.2985 52.1347 58.4168 51.962C58.5352 51.7901 58.7039 51.6555 58.9245 51.5598C59.1442 51.4641 59.4054 51.4163 59.707 51.4163C59.96 51.4163 60.1919 51.443 60.4028 51.4974C60.6136 51.5517 60.7863 51.6117 60.921 51.679L60.8601 52.2783C60.6582 52.1582 60.462 52.0707 60.2714 52.0172C60.0808 51.9628 59.8838 51.9361 59.6803 51.9361C59.4435 51.9361 59.2497 51.9831 59.098 52.0763C58.9464 52.1704 58.8701 52.3221 58.8701 52.5321C58.8701 52.6748 58.9074 52.7924 58.9821 52.884C59.0567 52.9757 59.1661 53.0576 59.3105 53.1289C59.4548 53.2003 59.6348 53.2765 59.8481 53.3584C60.119 53.4581 60.3484 53.5676 60.5358 53.686C60.7231 53.8044 60.8658 53.9431 60.9639 54.1028C61.0621 54.2626 61.1107 54.4572 61.1107 54.6851C61.1107 54.8667 61.0766 55.0297 61.0085 55.1757C60.9404 55.3216 60.839 55.4457 60.7061 55.5487C60.5723 55.6517 60.4076 55.7303 60.2122 55.7855C60.0168 55.8406 59.7913 55.8682 59.5367 55.8682H59.5375Z" fill="white"/>
<path d="M62.5393 55.7822V52.022H61.3838V51.5022H64.2666V52.022H63.111V55.7822H62.5393Z" fill="white"/>
<path d="M41.9824 62.5947V58.3147H43.2207C43.5978 58.3147 43.8929 58.4007 44.107 58.5734C44.3211 58.7453 44.4281 59.0088 44.4281 59.3632C44.4281 59.6081 44.3762 59.823 44.2724 60.0095C44.1687 60.196 44.0113 60.3177 43.8013 60.3752L43.8443 60.2349C44.1395 60.2877 44.3698 60.4085 44.5336 60.5974C44.6974 60.7864 44.7793 61.0442 44.7793 61.3727C44.7793 61.7473 44.6649 62.0449 44.4354 62.2655C44.206 62.4852 43.8889 62.5955 43.4834 62.5955H41.9824V62.5947ZM42.5541 60.0971H43.1469C43.3691 60.0971 43.5386 60.0541 43.6545 59.9673C43.7705 59.8806 43.8289 59.7111 43.8289 59.4581C43.8289 59.2051 43.7705 59.0453 43.6545 58.9602C43.5386 58.875 43.3691 58.8321 43.1469 58.8321H42.5541V60.0979V60.0971ZM42.5541 62.0749H43.4348C43.6545 62.0749 43.8305 62.0157 43.9602 61.8957C44.09 61.7757 44.1557 61.5957 44.1557 61.3532C44.1557 61.0824 44.0892 60.8918 43.957 60.7815C43.8248 60.6712 43.6505 60.6161 43.434 60.6161H42.5533V62.0741L42.5541 62.0749Z" fill="white"/>
<path d="M47.1644 62.6787C46.7857 62.6787 46.4484 62.5879 46.1524 62.4046C45.8572 62.2222 45.6245 61.9643 45.455 61.631C45.2855 61.2977 45.2012 60.9053 45.2012 60.4528C45.2012 60.0003 45.2855 59.6078 45.455 59.2745C45.6245 58.9412 45.8564 58.6834 46.1524 58.5009C46.4476 58.3184 46.7849 58.2268 47.1644 58.2268C47.5439 58.2268 47.8804 58.3176 48.1764 58.5009C48.4716 58.6834 48.7035 58.9412 48.8722 59.2745C49.04 59.6078 49.1244 60.0003 49.1244 60.4528C49.1244 60.9053 49.04 61.2977 48.8722 61.631C48.7043 61.9643 48.4724 62.2222 48.1764 62.4046C47.8812 62.5871 47.5439 62.6787 47.1644 62.6787ZM47.1644 62.116C47.4636 62.116 47.7134 62.0422 47.9137 61.8946C48.1132 61.747 48.2632 61.5467 48.3629 61.2953C48.4627 61.0439 48.513 60.7625 48.513 60.4528C48.513 60.143 48.4627 59.8624 48.3629 59.611C48.2632 59.3597 48.1124 59.1594 47.9121 59.0118C47.711 58.8642 47.462 58.7904 47.1644 58.7904C46.8668 58.7904 46.6178 58.8642 46.4167 59.0118C46.2156 59.1594 46.0656 59.3597 45.9642 59.611C45.8629 59.8624 45.8126 60.1438 45.8126 60.4528C45.8126 60.7617 45.8629 61.0431 45.9642 61.2953C46.0656 61.5475 46.2156 61.747 46.4167 61.8946C46.6178 62.0422 46.8668 62.116 47.1644 62.116Z" fill="white"/>
<path d="M50.9538 58.8788H51.1314L49.9272 62.5928H49.3223L50.747 58.3127H51.3398L52.7646 62.5928H52.1597L50.9554 58.8788H50.9538ZM51.8831 61.4372H50.2021V60.9117H51.8831V61.4372Z" fill="white"/>
<path d="M53.2773 62.5947V58.3147H54.5213C54.8165 58.3147 55.0735 58.3617 55.2917 58.4566C55.5098 58.5515 55.6777 58.695 55.796 58.888C55.9144 59.081 55.9736 59.3243 55.9736 59.6203C55.9736 59.8895 55.9136 60.123 55.7936 60.3201C55.6736 60.518 55.5001 60.6736 55.2738 60.788L56.1788 62.5947H55.4944L54.6778 60.9226C54.6632 60.9226 54.6462 60.9234 54.6259 60.9258C54.6056 60.9283 54.5853 60.9291 54.5651 60.9291H53.8653V62.5947H53.2782H53.2773ZM53.8644 60.4117H54.4945C54.7962 60.4117 55.0184 60.3428 55.1627 60.2041C55.3071 60.0655 55.3784 59.8708 55.3784 59.6203C55.3784 59.3697 55.3063 59.1726 55.1627 59.0364C55.0192 58.9002 54.7962 58.8312 54.4945 58.8312H53.8644V60.4117Z" fill="white"/>
<path d="M56.7529 62.5947V58.3147H58.2296C58.6124 58.3147 58.9529 58.399 59.2505 58.5685C59.5482 58.738 59.7817 58.9821 59.9504 59.3008C60.1198 59.6195 60.2042 60.0046 60.2042 60.4547C60.2042 60.9048 60.1198 61.2899 59.9504 61.6086C59.7809 61.9273 59.5482 62.1714 59.2505 62.3409C58.9529 62.5104 58.6124 62.5947 58.2296 62.5947H56.7529ZM57.3246 62.0749H58.1809C58.4867 62.0749 58.7429 62.0084 58.9497 61.8762C59.1565 61.7441 59.3122 61.5559 59.4176 61.3135C59.5222 61.071 59.5749 60.7847 59.5749 60.4547C59.5749 60.1247 59.5222 59.8384 59.4176 59.5959C59.313 59.3535 59.1565 59.1662 58.9497 59.0332C58.7429 58.901 58.4867 58.8345 58.1809 58.8345H57.3246V62.0749Z" fill="white"/>
<path d="M15.0877 15.0577L14.7949 14.7301L16.6268 13.092L16.9195 13.4197L16.1743 14.0862L18.8714 17.102L18.5308 17.4069L15.8337 14.3911L15.0885 15.0577H15.0877Z" fill="black"/>
<path d="M19.1592 11.0499C19.7179 10.6639 20.3148 10.5269 20.9489 10.6404C21.583 10.7531 22.0882 11.0824 22.4653 11.6273C22.8383 12.1674 22.9673 12.7553 22.8513 13.391C22.7353 14.0268 22.4077 14.5312 21.8668 14.905C21.3195 15.2829 20.7283 15.4151 20.0934 15.2999C19.4584 15.1856 18.9565 14.862 18.5891 14.3301C18.3442 13.9757 18.2031 13.5881 18.165 13.1664C18.1277 12.7455 18.1975 12.3466 18.375 11.9703C18.5526 11.594 18.8146 11.2875 19.1592 11.0491V11.0499ZM19.4236 11.397C19.1503 11.5859 18.9411 11.8357 18.7943 12.1471C18.6483 12.4585 18.5891 12.782 18.6183 13.1177C18.6475 13.4535 18.7643 13.7697 18.9686 14.0657C19.2719 14.5044 19.679 14.7696 20.1923 14.862C20.7048 14.9545 21.1759 14.8523 21.6049 14.5555C21.8912 14.3576 22.1085 14.1054 22.2561 13.7981C22.4037 13.4908 22.4629 13.1696 22.4329 12.8339C22.4029 12.4982 22.2861 12.1836 22.0825 11.8892C21.8798 11.5965 21.6292 11.3783 21.3292 11.2364C21.0292 11.0937 20.7056 11.0369 20.3602 11.0661C20.0139 11.0953 19.7017 11.2056 19.4236 11.3978V11.397Z" fill="black"/>
<path d="M22.4805 9.10056L22.8827 8.90269L24.0796 11.3314C24.2215 11.6193 24.3156 11.796 24.3618 11.8617C24.4599 12.0101 24.5718 12.1204 24.6975 12.191C24.8232 12.2615 24.9789 12.2956 25.1662 12.2931C25.3527 12.2907 25.523 12.2518 25.6763 12.1764C25.8093 12.1107 25.9228 12.0199 26.0177 11.9031C26.1117 11.7863 26.1758 11.6574 26.2082 11.5171C26.2407 11.3768 26.2415 11.2252 26.2091 11.0646C26.1864 10.9494 26.0963 10.7329 25.9398 10.4159L24.7429 7.98717L25.1451 7.78931L26.342 10.218C26.5188 10.5772 26.6275 10.8846 26.6664 11.1408C26.7053 11.3971 26.6599 11.659 26.5302 11.9266C26.4004 12.1942 26.1864 12.4018 25.8871 12.5494C25.5628 12.7091 25.2465 12.7691 24.9384 12.7278C24.6302 12.6872 24.374 12.5583 24.1704 12.3418C24.0439 12.2096 23.8801 11.9388 23.679 11.5309L22.4821 9.10218L22.4805 9.10056Z" fill="black"/>
<path d="M26.6055 7.18458L27.4488 6.8894C27.9183 6.72479 28.2435 6.63234 28.4244 6.61207C28.696 6.58207 28.9433 6.63315 29.1671 6.76777C29.391 6.90157 29.5507 7.10673 29.648 7.38406C29.7291 7.61436 29.7453 7.83574 29.6983 8.04901C29.6513 8.26147 29.5426 8.44798 29.3723 8.60773C29.202 8.76748 28.9401 8.91101 28.5857 9.03671L30.7963 10.4688L30.2732 10.652L28.0627 9.22078L27.8235 9.30431L28.5119 11.2692L28.0886 11.4176L26.6055 7.18539V7.18458ZM27.1739 7.45056L27.6783 8.88912L28.4098 8.63936C28.692 8.54043 28.8914 8.44068 29.0082 8.33932C29.125 8.23796 29.2004 8.11551 29.2353 7.97035C29.2701 7.82601 29.2612 7.68086 29.2101 7.53489C29.1607 7.39298 29.0763 7.27783 28.9596 7.18863C28.842 7.09943 28.7122 7.05159 28.5695 7.04591C28.4268 7.03942 28.2111 7.08727 27.9208 7.18944L27.1739 7.45137V7.45056Z" fill="black"/>
<path d="M34.6706 4.96285C35.3428 4.86635 35.938 5.01069 36.4554 5.39426C36.9727 5.77782 37.2785 6.29762 37.3717 6.95365C37.465 7.60319 37.3174 8.18705 36.9306 8.70441C36.543 9.22177 36.0248 9.52749 35.3744 9.61993C34.716 9.714 34.1281 9.56885 33.6107 9.18285C33.0933 8.79686 32.7884 8.28436 32.6968 7.64455C32.636 7.218 32.6822 6.80768 32.8363 6.41439C32.9903 6.02028 33.2312 5.69511 33.558 5.43805C33.8848 5.18099 34.2554 5.02286 34.6706 4.96285ZM34.7517 5.39182C34.4232 5.43886 34.124 5.56941 33.854 5.78268C33.5839 5.99595 33.3877 6.2595 33.2636 6.57333C33.1404 6.88715 33.1039 7.22206 33.155 7.57805C33.2304 8.10596 33.4769 8.5252 33.8945 8.83578C34.3121 9.14717 34.7792 9.26556 35.295 9.19177C35.6396 9.14231 35.9469 9.01337 36.2162 8.80415C36.4854 8.59494 36.6816 8.33382 36.8041 8.02C36.9265 7.70617 36.963 7.37289 36.9119 7.01852C36.8617 6.66658 36.7335 6.35924 36.5284 6.09813C36.3232 5.83702 36.0597 5.64159 35.7369 5.51346C35.4142 5.38534 35.0858 5.34479 34.7508 5.39263L34.7517 5.39182Z" fill="black"/>
<path d="M38.4772 4.70697L39.3708 4.70534C39.8833 4.70453 40.2288 4.72643 40.4072 4.77103C40.6634 4.83347 40.8727 4.96321 41.0356 5.15865C41.1986 5.35489 41.2805 5.60059 41.2805 5.89739C41.2805 6.19581 41.2019 6.44313 41.0438 6.63694C40.8856 6.83156 40.6675 6.96212 40.3885 7.02943C40.185 7.07808 39.8055 7.10322 39.2484 7.10403H38.9281L38.9313 9.1897H38.4829L38.4756 4.70534L38.4772 4.70697ZM38.9265 5.14567L38.9289 6.66695L39.6879 6.67506C39.9944 6.67506 40.2191 6.64667 40.3618 6.59072C40.5037 6.53477 40.6156 6.44395 40.6967 6.31906C40.7778 6.19418 40.8183 6.05471 40.8183 5.90063C40.8183 5.75061 40.777 5.61357 40.6959 5.48869C40.614 5.36381 40.5069 5.27542 40.3739 5.22271C40.2409 5.17 40.0228 5.14405 39.7195 5.14486L38.9265 5.14648V5.14567Z" fill="black"/>
<path d="M42.586 4.79126L45.1412 5.06778L45.0942 5.50405L42.9842 5.27619L42.8333 6.67339L44.9247 6.89964L44.8777 7.33591L42.7863 7.10967L42.5966 8.86205L44.6879 9.0883L44.6409 9.52457L42.1035 9.25048L42.5852 4.79126H42.586Z" fill="black"/>
<path d="M46.3422 5.27254L47.214 5.46635C47.6997 5.5742 48.0249 5.66745 48.1887 5.7453C48.4352 5.86289 48.6185 6.03723 48.7377 6.26915C48.8569 6.50108 48.8845 6.75976 48.8212 7.04601C48.7685 7.28442 48.6655 7.48147 48.5131 7.63717C48.3606 7.79286 48.17 7.89423 47.9414 7.93964C47.7127 7.98586 47.4143 7.96883 47.0469 7.88936L48.1692 10.2718L47.6284 10.1518L46.506 7.76935L46.2587 7.7142L45.807 9.74717L45.3691 9.64986L46.3422 5.27173V5.27254ZM46.6844 5.79801L46.3536 7.28604L47.1061 7.45958C47.3981 7.52445 47.6202 7.54472 47.7727 7.5204C47.9251 7.49607 48.0541 7.43119 48.1595 7.32659C48.2649 7.22198 48.3347 7.09466 48.3679 6.94383C48.4003 6.79706 48.3906 6.65515 48.3379 6.51729C48.2852 6.37944 48.2 6.27078 48.0825 6.1905C47.9649 6.11021 47.7557 6.03642 47.4556 5.96993L46.6836 5.79801H46.6844Z" fill="black"/>
<path d="M52.1944 6.89497L52.6267 11.8245L52.1717 11.6591L52.0128 10.0308L50.1972 9.37069L49.0359 10.5189L48.5664 10.3478L52.0906 6.85767L52.1936 6.89497H52.1944ZM51.8157 7.77076L50.5385 9.03335L51.9795 9.5572L51.8157 7.76995V7.77076Z" fill="black"/>
<path d="M54.5544 8.31541L54.749 7.92212L56.9523 9.01037L56.7577 9.40366L55.8608 8.9609L54.0695 12.5881L53.6592 12.3854L55.4505 8.75817L54.5536 8.31541H54.5544Z" fill="black"/>
<path d="M59.7925 10.5991C60.3594 10.9737 60.7089 11.4757 60.841 12.1058C60.9732 12.7358 60.8564 13.3278 60.4915 13.8808C60.1299 14.429 59.6328 14.768 58.9994 14.8977C58.3661 15.0275 57.7758 14.9115 57.2276 14.5499C56.6729 14.1833 56.3299 13.6846 56.1986 13.0521C56.0672 12.4204 56.1799 11.8341 56.5359 11.2948C56.7735 10.9356 57.08 10.6591 57.4571 10.4669C57.8334 10.2747 58.2299 10.1912 58.6451 10.2155C59.0603 10.2398 59.443 10.368 59.7925 10.5983V10.5991ZM59.5687 10.9737C59.2914 10.7913 58.9816 10.6899 58.6386 10.6704C58.2956 10.651 57.9728 10.7175 57.6728 10.8699C57.3719 11.0224 57.1222 11.2486 56.9243 11.5495C56.6308 11.9938 56.5367 12.4715 56.6429 12.9815C56.7492 13.4916 57.0192 13.8906 57.4547 14.1776C57.745 14.3698 58.0604 14.4769 58.401 14.4988C58.7408 14.5207 59.0611 14.4558 59.3611 14.3025C59.6612 14.1493 59.9093 13.9238 60.1072 13.6246C60.3034 13.3278 60.4113 13.0132 60.4315 12.6815C60.4518 12.3498 60.3837 12.0287 60.2272 11.7189C60.0715 11.4084 59.8517 11.1602 59.5703 10.9745L59.5687 10.9737Z" fill="black"/>
<path d="M62.8332 12.9522L63.5013 13.545C63.8736 13.8759 64.1128 14.1151 64.2174 14.2627C64.3763 14.4849 64.4509 14.7265 64.4428 14.9868C64.4347 15.2471 64.3325 15.4871 64.1379 15.7061C63.9757 15.8886 63.79 16.011 63.5816 16.0734C63.3724 16.1359 63.1575 16.131 62.9345 16.0605C62.7123 15.9899 62.4593 15.8302 62.1771 15.582L62.0012 18.2102L61.5868 17.842L61.7627 15.2139L61.573 15.046L60.1904 16.603L59.8555 16.3054L62.8332 12.9514V12.9522ZM62.8769 13.5783L61.8649 14.7184L62.439 15.2358C62.6629 15.4344 62.8469 15.5601 62.9921 15.6128C63.1372 15.6655 63.2816 15.672 63.4243 15.6315C63.567 15.5909 63.6903 15.5139 63.7925 15.3979C63.8922 15.2852 63.953 15.1563 63.9733 15.0103C63.9936 14.8644 63.9725 14.7273 63.9084 14.6C63.8444 14.4727 63.6976 14.3065 63.4673 14.1029L62.8761 13.5774L62.8769 13.5783Z" fill="black"/>
<path d="M26.0768 70.3951L26.0403 74.8941L25.6429 74.7051L25.6405 73.2187L24.0552 72.4638L22.9045 73.402L22.4941 73.2066L25.9867 70.3538L26.0768 70.3967V70.3951ZM25.6575 71.1549L24.3925 72.1872L25.651 72.7865L25.6583 71.1549H25.6575Z" fill="black"/>
<path d="M28.3593 71.3987L28.7461 71.5268L27.9733 73.8639C27.8816 74.1412 27.8297 74.3155 27.8176 74.3877C27.7868 74.5467 27.7892 74.6894 27.8249 74.8151C27.8614 74.9408 27.9408 75.0624 28.0633 75.18C28.1857 75.2976 28.3212 75.3803 28.4687 75.4289C28.5969 75.4711 28.7282 75.4849 28.8645 75.4695C29.0007 75.4541 29.1232 75.4111 29.2343 75.3405C29.3453 75.27 29.4418 75.1727 29.5237 75.0478C29.5821 74.9586 29.6624 74.7607 29.763 74.4558L30.5358 72.1188L30.9226 72.2469L30.1498 74.584C30.0354 74.9294 29.9097 75.1978 29.7711 75.3884C29.6332 75.5789 29.437 75.72 29.1815 75.8109C28.9269 75.9017 28.6553 75.9001 28.3674 75.8044C28.0552 75.7014 27.8119 75.5384 27.6384 75.3154C27.4648 75.0924 27.3813 74.8459 27.387 74.5758C27.3894 74.4096 27.4559 74.1298 27.5857 73.7366L28.3585 71.3995L28.3593 71.3987Z" fill="black"/>
<path d="M31.4072 72.7821L31.4948 72.3929L33.6745 72.8827L33.587 73.2719L32.6998 73.0724L31.893 76.6607L31.4875 76.5691L32.2944 72.9808L31.4072 72.7813V72.7821Z" fill="black"/>
<path d="M34.2312 72.9962L34.6358 73.0448L34.4307 74.7429L36.492 74.9919L36.6972 73.2938L37.1018 73.3424L36.6128 77.3905L36.2082 77.3419L36.4442 75.3884L34.3828 75.1394L34.1468 77.0929L33.7422 77.0443L34.2312 72.9962Z" fill="black"/>
<path d="M39.957 73.284C40.5741 73.2718 41.0955 73.4673 41.5196 73.8711C41.9437 74.2749 42.1619 74.7777 42.174 75.3802C42.1862 75.977 41.9883 76.4871 41.5821 76.9112C41.175 77.3353 40.673 77.5535 40.0762 77.5648C39.4712 77.577 38.9571 77.3799 38.533 76.9745C38.1089 76.569 37.8908 76.0727 37.8794 75.4848C37.8713 75.0931 37.9589 74.7282 38.1422 74.3901C38.3246 74.0519 38.5784 73.7851 38.9012 73.5889C39.2247 73.3926 39.5767 73.2913 39.9578 73.284H39.957ZM39.9829 73.6797C39.6813 73.6862 39.3966 73.7697 39.1299 73.9327C38.8631 74.0957 38.6563 74.3114 38.5095 74.5806C38.3627 74.8499 38.293 75.1483 38.2995 75.4759C38.3092 75.96 38.4852 76.3663 38.8274 76.6931C39.1696 77.0199 39.5783 77.1788 40.0519 77.1691C40.3681 77.1626 40.6592 77.0799 40.926 76.9218C41.192 76.7628 41.398 76.5487 41.5439 76.2795C41.6891 76.0103 41.7588 75.7127 41.7524 75.3875C41.7459 75.0639 41.6648 74.7728 41.5083 74.5141C41.3526 74.2555 41.1361 74.0503 40.8587 73.8987C40.5814 73.747 40.2895 73.674 39.9821 73.6805L39.9829 73.6797Z" fill="black"/>
<path d="M42.8984 73.2143L43.7012 73.0894C44.1489 73.0197 44.4546 72.9913 44.6192 73.0027C44.8665 73.0205 45.0798 73.1073 45.2574 73.2646C45.435 73.4211 45.5445 73.6311 45.585 73.8947C45.6191 74.1144 45.5972 74.3147 45.5201 74.4972C45.4431 74.6796 45.315 74.828 45.1366 74.9432C44.9582 75.0583 44.7003 75.1427 44.3629 75.197L46.1024 76.8424L45.6045 76.9202L43.865 75.2749L43.6372 75.3105L43.9275 77.1813L43.5253 77.2438L42.8992 73.2151L42.8984 73.2143ZM43.3623 73.546L43.5747 74.9156L44.2697 74.8134C44.5389 74.7721 44.7335 74.7153 44.8544 74.644C44.9752 74.5726 45.0636 74.4753 45.1179 74.352C45.1722 74.2288 45.1893 74.0974 45.1674 73.9587C45.1463 73.8233 45.0912 73.7065 45.0003 73.6076C44.9103 73.5087 44.8017 73.4446 44.6751 73.4154C44.5486 73.3862 44.3475 73.3935 44.0718 73.4365L43.3615 73.5468L43.3623 73.546Z" fill="black"/>
<path d="M46.2324 72.6189L46.629 72.5256L47.5664 76.4934L47.1698 76.5867L46.2332 72.6189H46.2324Z" fill="black"/>
<path d="M48.1511 75.5869L48.4211 75.2861C48.7868 75.6429 49.1226 75.7742 49.4275 75.6802C49.558 75.6396 49.6716 75.5715 49.7672 75.475C49.8629 75.3785 49.9254 75.2699 49.9538 75.149C49.9821 75.0282 49.9789 74.9106 49.9432 74.7955C49.9027 74.6649 49.8191 74.5506 49.6918 74.4525C49.5167 74.317 49.2296 74.1776 48.8314 74.034C48.4309 73.8889 48.1738 73.7737 48.0603 73.6894C47.8656 73.5483 47.7359 73.3707 47.6694 73.1574C47.6167 72.9879 47.6102 72.8209 47.6483 72.6563C47.6864 72.4917 47.7667 72.3465 47.8892 72.2208C48.0116 72.0951 48.1592 72.0051 48.3327 71.9516C48.516 71.8948 48.7017 71.8875 48.8898 71.9289C49.078 71.9702 49.2985 72.0854 49.5524 72.2735L49.3091 72.6125C49.1023 72.4641 48.9385 72.3741 48.816 72.3441C48.6936 72.3141 48.572 72.3181 48.4495 72.3562C48.2922 72.4049 48.1787 72.4925 48.1081 72.6182C48.0376 72.7447 48.0246 72.8768 48.0676 73.0163C48.0935 73.1007 48.1365 73.1777 48.1965 73.2458C48.2565 73.3147 48.3473 73.3812 48.4698 73.4453C48.5363 73.4785 48.7439 73.5572 49.0934 73.6788C49.5078 73.8232 49.807 73.9732 49.9927 74.1289C50.1784 74.2846 50.3008 74.4598 50.3616 74.656C50.4492 74.9382 50.4176 75.2171 50.2676 75.4912C50.1176 75.7661 49.8889 75.951 49.5815 76.0459C49.3448 76.1189 49.1112 76.1221 48.8793 76.0556C48.6482 75.9891 48.4049 75.8326 48.1511 75.5861V75.5869Z" fill="black"/>
<path d="M50.2607 71.4166L52.4186 70.5198L52.5718 70.8879L50.7903 71.6283L51.2809 72.8082L53.047 72.0743L53.2003 72.4425L51.4341 73.1763L52.0488 74.6554L53.815 73.9216L53.9682 74.2897L51.8258 75.1801L50.2607 71.415V71.4166Z" fill="black"/>
<path d="M55.0147 73.8055L53.0312 70.2431L53.77 69.832C54.3028 69.5352 54.7131 69.3625 55.001 69.3146C55.4137 69.2433 55.8005 69.3025 56.1614 69.493C56.5222 69.6836 56.8174 69.9853 57.0477 70.3988C57.2464 70.7556 57.3445 71.1124 57.3413 71.4692C57.338 71.826 57.2496 72.1382 57.0753 72.4042C56.9009 72.6702 56.592 72.9273 56.1476 73.1746L55.0147 73.8055ZM55.1688 73.2784L55.5808 73.0489C56.073 72.7748 56.3974 72.5542 56.5539 72.3864C56.7736 72.1496 56.8969 71.8763 56.9236 71.5641C56.9504 71.2519 56.8734 70.9324 56.6909 70.6048C56.4995 70.261 56.253 70.0136 55.9514 69.8628C55.6497 69.712 55.3245 69.6739 54.9774 69.7493C54.7171 69.8061 54.3311 69.9763 53.8195 70.261L53.5673 70.4013L55.1696 73.2784H55.1688Z" fill="black"/>
</g>
<defs>
<clipPath id="clip0_75_1587">
<rect width="80" height="80" fill="white" transform="translate(0 0.500244)"/>
</clipPath>
</defs>
</svg>
