<svg width="40" height="27" viewBox="0 0 40 27" fill="none" xmlns="http://www.w3.org/2000/svg">
<rect y="0.926025" width="40" height="26" rx="2.51813" fill="#F4F5FF"/>
<path d="M17.9734 18.4236H15.5107L17.051 9.45728H19.5135L17.9734 18.4236Z" fill="#00579F"/>
<path d="M26.8999 9.6769C26.4141 9.49548 25.6437 9.29517 24.6911 9.29517C22.2592 9.29517 20.5467 10.5161 20.5361 12.2615C20.5159 13.5494 21.7623 14.2647 22.6944 14.6941C23.6472 15.1328 23.971 15.4192 23.971 15.8104C23.9613 16.411 23.2012 16.6879 22.4921 16.6879C21.509 16.6879 20.9822 16.5452 20.1816 16.211L19.8573 16.0677L19.5127 18.0805C20.0903 18.3282 21.1544 18.548 22.2592 18.5577C24.8431 18.5577 26.5254 17.3557 26.5453 15.4956C26.5551 14.4749 25.897 13.6928 24.4782 13.0537C23.6169 12.6434 23.0894 12.3668 23.0894 11.947C23.0995 11.5654 23.5355 11.1745 24.5078 11.1745C25.3084 11.1554 25.8966 11.3366 26.3422 11.5179L26.5649 11.6131L26.8999 9.6769Z" fill="#00579F"/>
<path d="M30.1733 15.2472C30.3762 14.7321 31.1565 12.7385 31.1565 12.7385C31.1463 12.7576 31.3589 12.2138 31.4805 11.88L31.6526 12.6526C31.6526 12.6526 32.119 14.7989 32.2202 15.2472C31.8354 15.2472 30.6598 15.2472 30.1733 15.2472ZM33.2131 9.45728H31.3083C30.7209 9.45728 30.2746 9.6193 30.0212 10.2012L26.3633 18.4235H28.9472C28.9472 18.4235 29.3726 17.3168 29.4641 17.0785C29.7475 17.0785 32.2612 17.0785 32.6259 17.0785C32.6966 17.3933 32.9197 18.4235 32.9197 18.4235H35.1998L33.2131 9.45728Z" fill="#00579F"/>
<path d="M13.454 9.45728L11.0423 15.5715L10.7787 14.3314C10.3329 12.9006 8.93452 11.346 7.37402 10.5731L9.58306 18.4141H12.1872L16.058 9.45728H13.454Z" fill="#00579F"/>
<path d="M8.80244 9.45728H4.84034L4.7998 9.63844C7.89049 10.3825 9.9374 12.1761 10.7784 14.3318L9.91706 10.211C9.77526 9.63832 9.33948 9.47617 8.80244 9.45728Z" fill="#FAA61A"/>
</svg>
